<?xml version="1.0" standalone="no"?>
<!DOCTYPE svg PUBLIC "-//W3C//DTD SVG 20010904//EN"
 "http://www.w3.org/TR/2001/REC-SVG-20010904/DTD/svg10.dtd">
<svg version="1.0" xmlns="http://www.w3.org/2000/svg"
 width="2520.000000pt" height="2520.000000pt" viewBox="0 0 2520.000000 2520.000000"
 preserveAspectRatio="xMidYMid meet">
<metadata>
Created by potrace 1.11, written by Peter Selinger 2001-2013
</metadata>
<g transform="translate(0.000000,2520.000000) scale(0.100000,-0.100000)"
fill="#000000" stroke="none">
<path d="M12740 16190 c-1678 -6 -1538 -1 -1710 -66 -285 -106 -527 -384 -621
-712 -26 -91 -43 -253 -35 -342 19 -227 95 -360 421 -731 264 -300 296 -341
284 -356 -10 -11 -252 -13 -1385 -13 l-1374 0 0 -635 0 -635 1523 0 c1888 1
2071 7 2241 75 159 64 350 220 441 360 88 134 153 301 176 447 18 113 6 287
-25 383 -34 108 -142 267 -431 635 -167 213 -272 355 -280 380 -3 11 -3 24 0
30 4 7 275 10 796 10 l789 0 0 -1160 0 -1160 660 0 660 0 2 1158 3 1157 758 3
757 2 0 590 0 590 -1062 -2 c-585 -2 -1749 -5 -2588 -8z m3450 -580 l0 -380
-760 0 -760 0 0 -1160 0 -1160 -455 0 -455 0 0 1162 0 1161 -922 -7 c-854 -7
-926 -8 -963 -25 -113 -50 -157 -187 -98 -307 26 -53 145 -216 353 -484 248
-318 332 -442 356 -525 22 -72 24 -232 5 -320 -49 -224 -201 -439 -387 -548
-180 -105 -82 -100 -1956 -104 l-1618 -4 0 426 0 425 1296 0 1295 0 47 32 c68
47 101 86 117 142 35 118 27 132 -335 542 -213 242 -301 361 -342 463 -20 50
-23 73 -22 206 1 136 3 158 28 235 89 274 286 484 531 568 l80 27 720 5 c396
3 1513 6 2483 8 l1762 2 0 -380z"/>
<path d="M17029 16143 c-6 -16 -37 -104 -69 -198 -32 -93 -211 -613 -398
-1155 -549 -1588 -642 -1859 -682 -1978 l-39 -112 667 2 666 3 17 55 c10 30
40 127 67 215 l49 160 623 0 623 0 69 -224 c37 -123 70 -226 72 -229 3 -2 300
-6 662 -9 594 -6 657 -5 651 10 -5 13 -1022 2954 -1181 3417 l-23 65 -882 3
-881 2 -11 -27z m1898 -968 c150 -434 305 -882 344 -995 39 -113 113 -326 164
-475 197 -571 273 -791 280 -808 7 -16 -16 -17 -431 -15 l-439 3 -69 226 -69
227 -231 7 c-127 3 -476 5 -775 3 l-544 -3 -67 -215 -66 -215 -446 -3 -447 -2
34 97 c66 193 197 573 772 2238 24 72 89 260 143 418 55 158 102 292 105 298
4 6 277 8 737 7 l732 -3 273 -790z"/>
<path d="M17940 15506 c0 -2 -79 -224 -176 -492 -210 -585 -344 -969 -344
-989 0 -13 71 -15 520 -15 286 0 520 2 520 5 0 6 -206 618 -382 1132 -67 200
-126 363 -130 363 -5 0 -8 -2 -8 -4z m120 -945 c60 -178 110 -327 110 -332 0
-5 -99 -9 -230 -9 -192 0 -230 2 -230 14 0 11 158 462 225 645 3 8 8 12 10 9
3 -2 54 -150 115 -327z"/>
<path d="M20330 14436 l0 -1736 702 0 701 0 -7 430 c-4 236 -5 434 -1 440 4 6
76 -56 163 -138 468 -444 710 -640 845 -686 105 -36 187 -38 1300 -43 l1097
-5 -1 94 c-1 51 -6 334 -13 628 l-11 535 -889 14 -890 13 -33 27 c-18 14 -33
29 -33 32 0 3 18 15 39 27 72 41 217 160 282 230 129 143 222 324 260 507 21
103 25 289 8 410 -25 185 -68 294 -171 441 -199 281 -489 459 -809 495 -59 7
-551 13 -1316 16 l-1223 5 0 -1736z m2425 1514 c172 -9 246 -26 363 -81 149
-69 270 -172 386 -326 107 -142 148 -280 149 -508 1 -195 -37 -331 -135 -482
-93 -142 -210 -242 -438 -372 -68 -39 -129 -76 -134 -81 -5 -5 -2 -20 9 -37
29 -45 143 -160 224 -226 l74 -61 661 -8 c364 -5 734 -11 823 -14 l162 -6 5
-52 c3 -28 7 -216 10 -418 l5 -368 -917 0 c-504 0 -975 5 -1047 10 -113 8
-138 13 -190 39 -129 64 -395 297 -1060 929 l-180 171 -3 -574 -2 -575 -495 0
-495 0 0 1523 c0 838 3 1527 8 1532 9 10 2016 -3 2217 -15z"/>
<path d="M21500 14965 l0 -375 408 0 c439 0 623 10 669 34 97 49 185 175 198
281 8 61 -10 175 -34 230 -41 91 -175 176 -306 195 -38 5 -265 10 -502 10
l-433 0 0 -375z m845 166 c162 -14 214 -49 222 -154 6 -74 -9 -113 -59 -149
-33 -23 -33 -23 -415 -26 l-383 -3 0 170 0 171 268 0 c147 -1 312 -5 367 -9z"/>
<path d="M2465 15714 c-360 -58 -563 -338 -616 -852 -14 -143 -7 -436 16 -612
15 -119 77 -447 90 -482 5 -13 -18 -23 -127 -58 -736 -233 -1234 -606 -1334
-999 -24 -96 -16 -253 19 -350 45 -128 110 -224 242 -357 66 -67 155 -147 199
-179 232 -170 537 -319 879 -431 64 -21 117 -44 117 -50 0 -7 -9 -50 -20 -96
-56 -236 -90 -522 -90 -760 0 -876 407 -1252 1104 -1021 299 100 665 331 976
617 l92 85 111 -101 c361 -328 717 -545 1042 -634 111 -31 311 -43 407 -25
213 41 394 209 489 456 77 198 104 375 103 675 0 250 -21 446 -74 690 -15 74
-25 138 -22 141 4 3 48 18 97 34 227 71 525 205 715 320 342 207 563 455 625
700 18 70 20 192 4 267 -15 73 -87 221 -143 295 -211 278 -650 543 -1183 715
-78 25 -133 48 -133 55 0 7 13 79 30 160 101 504 101 951 -2 1272 -91 287
-255 463 -479 516 -84 19 -260 19 -357 -1 -335 -68 -753 -314 -1137 -669
l-101 -93 -94 85 c-403 361 -809 598 -1146 668 -81 17 -246 27 -299 19z m3162
-334 c269 -115 355 -692 212 -1405 -16 -82 -32 -151 -34 -153 -2 -3 -73 10
-157 27 -239 48 -535 92 -762 113 -25 3 -42 21 -109 113 -108 148 -324 417
-433 539 l-88 99 79 74 c122 114 276 236 420 332 363 243 688 340 872 261z
m-2892 5 c111 -24 191 -53 330 -120 209 -102 429 -254 662 -458 119 -104 120
-79 -8 -219 -107 -117 -254 -298 -385 -473 l-112 -151 -129 -12 c-177 -18
-436 -57 -638 -97 -93 -18 -173 -30 -177 -26 -12 11 -77 349 -93 486 -19 168
-19 460 0 590 34 228 117 399 219 452 85 45 205 55 331 28z m1363 -949 c105
-116 352 -420 352 -435 0 -3 -184 -6 -410 -6 -225 0 -410 3 -410 6 0 19 395
489 411 489 4 0 29 -24 57 -54z m509 -752 l82 -7 97 -151 c180 -277 375 -617
490 -848 l58 -118 -38 -77 c-118 -240 -352 -648 -518 -905 l-89 -136 -117 -9
c-147 -10 -978 -10 -1092 0 l-85 8 -74 110 c-170 256 -382 621 -512 882 l-64
128 85 167 c115 225 275 504 416 725 64 101 123 193 133 205 14 19 31 22 176
31 164 10 905 6 1052 -5z m-1607 -49 c0 -2 -25 -43 -55 -89 -69 -107 -214
-358 -295 -510 -34 -64 -63 -116 -65 -116 -13 0 -231 598 -221 607 7 7 313 65
466 88 185 28 170 26 170 20z m2235 -20 c157 -22 485 -86 485 -95 0 -29 -177
-508 -215 -579 -13 -25 -13 -25 -43 35 -48 94 -226 404 -307 534 -41 66 -75
122 -75 124 0 2 10 2 23 0 12 -2 72 -11 132 -19z m-3119 -318 c61 -180 160
-433 238 -609 l56 -128 -78 -182 c-93 -215 -156 -378 -223 -578 -40 -119 -52
-144 -66 -142 -47 9 -245 78 -355 123 -439 181 -752 416 -862 649 -25 53 -30
78 -31 135 0 62 5 80 37 145 127 258 509 507 1053 688 117 39 150 48 170 51 6
0 33 -68 61 -152z m4122 82 c405 -140 764 -350 922 -540 68 -82 97 -135 116
-211 15 -59 15 -70 0 -128 -25 -96 -70 -165 -180 -275 -150 -149 -343 -272
-616 -393 -118 -52 -416 -162 -440 -162 -5 0 -14 17 -20 38 -55 172 -204 543
-322 802 l-26 55 48 106 c69 153 192 464 245 619 25 74 47 140 50 147 5 14 37
6 223 -58z m-683 -1294 c56 -132 175 -458 175 -479 0 -9 -15 -19 -37 -25 -105
-28 -600 -107 -610 -97 -2 2 24 48 58 102 76 121 261 444 315 547 21 42 42 73
45 69 4 -4 28 -56 54 -117z m-2930 45 c48 -96 207 -372 299 -520 42 -67 76
-125 76 -130 0 -4 -10 -6 -22 -4 -13 2 -90 13 -173 24 -187 26 -427 70 -439
81 -5 4 13 73 43 161 54 156 170 458 177 458 2 0 20 -32 39 -70z m3204 -867
c71 -266 108 -697 81 -944 -33 -307 -135 -514 -283 -580 -100 -44 -287 -27
-467 42 -236 90 -568 311 -820 546 l-74 70 29 35 c17 20 75 89 131 155 135
158 291 363 430 562 2 1 65 9 141 17 199 21 453 60 643 98 91 19 168 34 172
35 4 1 12 -16 17 -36z m-3399 -8 c196 -38 694 -105 783 -105 8 0 61 -62 118
-137 133 -179 275 -353 405 -500 l104 -118 -57 -52 c-351 -323 -752 -557
-1050 -614 -34 -6 -106 -10 -160 -7 -84 3 -105 8 -150 32 -63 35 -91 63 -138
141 -80 134 -117 322 -118 595 0 237 26 452 84 703 16 66 25 87 37 87 9 0 73
-11 142 -25z m2030 -132 c0 -17 -257 -339 -374 -468 l-36 -40 -32 36 c-102
113 -216 248 -297 349 l-92 115 403 5 c222 3 409 6 416 8 6 1 12 -1 12 -5z"/>
<path d="M3905 13259 c-210 -49 -382 -199 -461 -404 -35 -92 -45 -266 -20
-365 57 -229 242 -411 471 -465 78 -19 213 -19 294 0 170 40 333 170 409 326
54 108 72 182 72 289 0 291 -198 542 -485 615 -65 16 -216 19 -280 4z"/>
<path d="M14221 12508 c-4 -13 -149 -430 -320 -928 -172 -498 -438 -1267 -591
-1710 -237 -686 -275 -806 -261 -811 9 -3 303 -9 653 -12 l637 -6 15 52 c9 29
39 132 68 230 l52 177 531 0 c291 0 573 -3 625 -6 l96 -7 70 -226 70 -226 653
2 c359 1 655 4 658 7 2 2 -93 285 -212 628 -119 342 -345 992 -502 1443 -156
451 -331 953 -387 1115 l-103 295 -872 3 -871 2 -9 -22z m1615 -210 c6 -23
354 -1024 813 -2346 133 -381 241 -697 241 -703 0 -6 -165 -8 -437 -7 l-437 3
-70 226 -69 226 -516 6 c-284 4 -634 7 -778 7 l-261 0 -20 -67 c-11 -38 -42
-142 -69 -232 l-48 -164 -429 7 c-237 3 -431 8 -433 10 -2 1 32 106 76 232
138 397 259 750 622 1802 l353 1022 727 0 728 0 7 -22z"/>
<path d="M15117 11840 c-4 -8 -85 -231 -181 -495 -96 -264 -213 -585 -260
-713 -47 -128 -86 -238 -86 -243 0 -5 203 -9 515 -9 283 0 515 1 515 3 0 2
-36 109 -79 238 -95 282 -406 1198 -413 1219 -5 13 -6 13 -11 0z m113 -945
c55 -164 98 -300 96 -302 -1 -2 -102 -2 -223 -1 l-221 3 99 270 c140 383 130
360 140 343 5 -9 54 -149 109 -313z"/>
<path d="M22835 12509 c-423 -28 -750 -248 -896 -603 -56 -135 -72 -226 -72
-391 1 -314 93 -501 420 -857 205 -223 292 -332 279 -346 -11 -10 -1908 -9
-1979 1 -36 5 -67 17 -83 31 l-26 22 55 36 c151 101 321 269 391 388 43 74
102 217 127 309 126 461 -187 1022 -706 1267 -49 24 -124 52 -165 64 -179 50
-182 50 -1454 50 l-1189 0 6 -862 c4 -475 7 -1256 7 -1735 l0 -873 685 0 685
0 0 456 c0 275 4 454 9 452 5 -1 105 -94 223 -204 505 -476 709 -633 878 -674
97 -23 692 -31 1915 -27 1314 4 1369 6 1553 53 110 27 190 69 299 158 258 208
399 470 411 764 8 213 -27 348 -131 504 -30 46 -160 214 -287 373 -241 301
-320 405 -320 423 0 6 269 8 820 4 l820 -5 -2 614 -3 614 -1075 1 c-591 1
-1129 -2 -1195 -7z m2065 -604 l0 -405 -784 0 c-771 0 -784 0 -809 -20 -38
-30 -70 -123 -65 -188 6 -70 50 -133 364 -527 248 -310 337 -435 366 -510 25
-63 41 -193 34 -271 -23 -250 -170 -489 -397 -644 -70 -48 -112 -66 -202 -84
-179 -36 -356 -41 -1692 -39 -1335 2 -1608 8 -1680 38 -136 58 -329 218 -800
664 -284 270 -465 437 -493 457 -18 13 -19 -2 -25 -573 -4 -322 -8 -588 -10
-589 -2 -2 -217 -1 -478 4 l-474 7 -3 1523 -2 1523 1132 -3 1133 -3 89 -28
c299 -93 531 -286 669 -555 133 -258 132 -478 -5 -743 -83 -163 -269 -333
-483 -443 -120 -62 -129 -69 -120 -98 12 -37 214 -231 268 -257 78 -38 224
-42 1241 -39 863 3 945 5 993 21 59 20 85 49 113 131 16 44 17 60 8 92 -20 73
-127 211 -367 472 -272 296 -351 455 -351 702 0 415 284 724 715 779 39 4 530
9 1093 10 l1022 1 0 -405z"/>
<path d="M18717 11653 c-4 -3 -7 -167 -7 -364 l0 -357 23 -6 c120 -32 868 -33
982 -1 116 31 202 101 252 203 24 50 28 69 28 147 0 80 -3 97 -31 155 -34 71
-94 138 -160 176 -31 18 -66 27 -131 34 -109 11 -947 23 -956 13z m830 -212
c151 -7 153 -8 184 -37 72 -68 83 -156 27 -220 -60 -68 -61 -69 -470 -72
l-368 -3 0 170 0 171 238 -1 c130 0 306 -4 389 -8z"/>
<path d="M8532 12058 c82 -244 185 -546 228 -673 43 -126 149 -437 235 -690
86 -253 194 -570 240 -705 200 -589 245 -722 284 -834 23 -66 41 -121 41 -123
0 -1 202 -3 449 -3 l448 0 181 498 c100 273 216 593 259 709 42 117 80 209 84
205 4 -4 116 -320 247 -702 132 -382 243 -703 247 -712 7 -17 38 -18 460 -18
423 0 453 1 458 18 6 20 1173 3419 1182 3445 7 16 -28 17 -651 17 l-659 0 -52
-153 c-160 -469 -267 -767 -273 -760 -7 7 -61 162 -265 763 l-52 155 -639 2
-639 3 -159 -456 c-88 -250 -162 -457 -166 -459 -3 -2 -69 172 -145 388 -76
216 -149 422 -163 460 l-24 67 -654 0 -653 0 151 -442z m1016 220 c5 -13 111
-312 237 -665 126 -354 232 -643 235 -643 4 0 22 42 40 93 116 334 349 993
388 1102 l47 130 489 0 489 0 103 -305 c244 -716 360 -1028 375 -1013 9 9 146
393 339 951 66 188 122 347 125 352 7 12 861 14 869 2 2 -4 -29 -104 -69 -222
-40 -118 -175 -512 -300 -875 -322 -938 -326 -950 -506 -1475 -89 -261 -167
-481 -172 -488 -8 -9 -77 -12 -310 -10 l-299 3 -254 735 c-140 404 -284 825
-321 934 -56 169 -68 196 -76 175 -18 -48 -510 -1399 -585 -1607 l-77 -212
-304 2 -304 3 -103 300 c-239 702 -927 2721 -931 2738 -5 16 20 17 431 17
l436 0 8 -22z"/>
</g>
</svg>
