<?xml version="1.0" encoding="UTF-8"?>
<svg width="500px" height="500px" viewBox="0 0 500 500" version="1.1" xmlns="http://www.w3.org/2000/svg" xmlns:xlink="http://www.w3.org/1999/xlink">
    <!-- Generator: Sketch 55.2 (78181) - https://sketchapp.com -->
    <title>full</title>
    <desc>Created with Sketch.</desc>
    <defs>
        <rect id="path-1" x="0" y="0" width="500" height="500"></rect>
        <radialGradient cx="-59.7313364%" cy="-118.815216%" fx="-59.7313364%" fy="-118.815216%" r="244.017519%" gradientTransform="translate(-0.597313,-1.188152),rotate(51.564044),scale(1.000000,1.026763),translate(0.597313,1.188152)" id="radialGradient-3">
            <stop stop-color="#1E8BCA" offset="0%"></stop>
            <stop stop-color="#333333" offset="100%"></stop>
        </radialGradient>
    </defs>
    <g id="Page-1" stroke="none" stroke-width="1" fill="none" fill-rule="evenodd">
        <g id="full">
            <mask id="mask-2" fill="white">
                <use xlink:href="#path-1"></use>
            </mask>
            <use id="Mask" fill="#D8D8D8" xlink:href="#path-1"></use>
            <rect id="Rectangle" fill="url(#radialGradient-3)" mask="url(#mask-2)" x="0" y="0" width="500" height="500"></rect>
            <g id="not-found" mask="url(#mask-2)">
                <g transform="translate(63.000000, 183.000000)">
                    <g id="male">
                        <path d="M89.125,6.99726483 C82.4706606,3.32281968 75.0616226,0.895866283 67.2002468,0 C46.1553068,25.1596628 19.9782567,42.5663529 0.546975955,53.1724917 C0.198900347,55.8559923 0,58.589491 0,61.3729877 C0,66.9170312 0.679308848,72.2184613 1.73797199,77.1428571 C24.8673555,65.6187218 61.6927924,43.162231 89.125,6.99726483 Z" id="Path" fill="#FFDC4A" fill-rule="nonzero"></path>
                        <path d="M62,0.961247289 C61.8208631,0.610723493 61.6688432,0.306604739 61.5143582,0 C33.8081219,0.973677211 10.7372588,20.2881184 3.875,46.2857143 C21.4287747,36.4072411 43.3755125,21.4987928 62,0.961247289 Z" id="Path" fill="#FFDC4A" fill-rule="nonzero"></path>
                        <path d="M97.683697,11.5714286 C93.7106779,16.9654984 89.5500133,22.0797224 85.25,26.8983696 C94.3812932,40.8227697 107.015304,57.5489399 123.198745,73.2857143 C123.691216,69.9946279 124,66.6497251 124,63.2998545 C124,41.7583489 113.555188,22.7834767 97.683697,11.5714286 Z" id="Path" fill="#FFDC4A" fill-rule="nonzero"></path>
                        <path d="M80.4101645,30.8571429 C53.8830067,56.9527848 23.832508,73.9238182 3.875,83.3850071 C7.53140763,95.4821941 13.0741835,104.465603 14.8977844,107.535051 C24.6426254,123.959347 42.7765325,135 63.5424841,135 C83.9627968,135 101.833081,124.327943 111.68923,108.355158 C113.831689,104.882634 120.330202,93.4865194 124,79.7753891 C105.391572,63.3798259 90.8713903,45.6658532 80.4101645,30.8571429 Z M108.011899,106.173953 C98.5022268,121.583583 81.8780837,130.784538 63.543321,130.784538 C45.1139888,130.784538 27.8956481,121.063935 18.6094273,105.412954 L18.3114915,104.911367 C16.4410244,101.777887 12.3243228,94.8771706 9.096407,85.5686741 C28.6262601,76.0180041 55.4019767,60.3612756 79.8117824,37.340007 C91.7492963,53.6731797 104.960569,68.3825578 119.152686,81.1504426 C115.323878,93.9675829 109.252182,104.159397 108.011899,106.173953 Z" id="Shape" fill="#FFDC4A" fill-rule="nonzero"></path>
                        <path d="M38.7492318,77.1428571 C34.9491278,77.1428571 31.7796858,80.4485048 31,84.8576177 C31.7796858,89.2676802 34.9491278,92.5714286 38.7492318,92.5714286 C42.5516404,92.5714286 45.7187779,89.2676802 46.5,84.8576177 C45.7187779,80.4485048 42.5516404,77.1428571 38.7492318,77.1428571 Z" id="Path" fill="#FFDC4A" fill-rule="nonzero"></path>
                        <path d="M85.2492318,77.1428571 C81.4483596,77.1428571 78.2789176,80.4485048 77.5,84.8576177 C78.2789176,89.2676802 81.4483596,92.5714286 85.2492318,92.5714286 C89.0470314,92.5714286 92.2180097,89.2676802 93,84.8576177 C92.2180097,80.4485048 89.0470314,77.1428571 85.2492318,77.1428571 Z" id="Path" fill="#FFDC4A" fill-rule="nonzero"></path>
                    </g>
                    <g id="female" transform="translate(162.000000, 0.000000)">
                        <path d="M30.3920435,23.2923209 C20.6595094,21.7992501 9.80937232,31.8400501 7.94609893,37.9134898 C5.76054425,45.0349115 22.0515479,53.2741132 26.617651,53.4936229 C31.1873651,53.7171789 37.1491177,55.2749899 38.1394331,51.4917347 C39.1342622,47.7044331 40.9217047,43.2515214 42.3119378,37.9124783 C43.7003653,32.5693888 40.1245776,24.7803339 30.3920435,23.2923209 Z" id="Path" fill="#FFDC4A" fill-rule="nonzero"></path>
                        <path d="M31.2176315,77.1428571 C35.4232979,77.1428571 34.8252194,70.2731793 34.8252194,65.544421 C34.8252194,60.8215175 32.6113275,58.5215416 29.6172936,58.0297351 C20.4003299,56.5260173 11.9853559,50.0837428 6.58171187,50.143267 C1.1726059,50.2027912 -2.43498194,59.1040981 1.97550585,65.544421 C6.38053172,71.9886472 27.0128755,77.1428571 31.2176315,77.1428571 Z" id="Path" fill="#FFDC4A" fill-rule="nonzero"></path>
                        <path d="M29.2229523,87.5490105 C25.5387497,87.5490105 18.5832133,86.7320119 14.4907914,85.2997083 C10.3983695,83.8674048 3.23732855,79.3669416 0.987937822,81.620891 C-1.06245761,83.6657112 0.167779649,89.7983126 3.85291212,96.3454548 C7.53339517,102.889809 22.0591217,108 28.403724,108 C34.7492562,108 39.454472,102.889809 38.6343138,96.5480779 C37.8188051,90.2072766 32.9043652,87.5490105 29.2229523,87.5490105 Z" id="Path" fill="#FFDC4A" fill-rule="nonzero"></path>
                        <path d="M186.383617,53.4935161 C190.95161,53.2729943 207.240207,45.0347846 205.053709,37.9133461 C203.190401,31.8398919 192.340063,21.8000797 182.606446,23.2921424 C172.873732,24.7791474 169.297878,32.5692324 170.689039,37.9133461 C172.082006,43.2524019 173.868579,47.7053241 174.858913,51.4926346 C175.854663,55.2748873 181.815623,53.7170726 186.383617,53.4935161 Z" id="Path" fill="#FFDC4A" fill-rule="nonzero"></path>
                        <path d="M206.420077,50.143267 C201.010783,50.0837428 192.595516,56.5260173 183.383695,58.0297351 C180.386826,58.5215416 178.174677,60.8215175 178.174677,65.544421 C178.174677,70.2731793 177.577489,77.1428571 181.782391,77.1428571 C185.987293,77.1428571 206.620353,71.9886472 211.026443,65.544421 C215.432532,59.1040981 211.829371,50.2027912 206.420077,50.143267 Z" id="Path" fill="#FFDC4A" fill-rule="nonzero"></path>
                        <path d="M198.509405,85.2997083 C194.414759,86.7320119 187.460462,87.5490105 183.776861,87.5490105 C180.0914,87.5490105 175.181171,90.2072766 174.36559,96.5480779 C173.546289,102.889809 178.246344,108 184.592442,108 C190.93854,108 205.465562,102.889809 209.150093,96.3454548 C212.830904,89.7983126 214.061251,83.6657112 212.014393,81.620891 C209.765732,79.3669416 202.604982,83.8674048 198.509405,85.2997083 Z" id="Path" fill="#FFDC4A" fill-rule="nonzero"></path>
                        <path d="M81.3272727,3.85714286 C62.1011569,11.7819432 47.5885822,27.3638087 42.6,46.2857143 C61.8611881,38.4108025 76.4171419,22.7940151 81.3272727,3.85714286 Z" id="Path" fill="#FFDC4A" fill-rule="nonzero"></path>
                        <path d="M100.690909,0 C95.6120889,0.344391801 90.6994636,1.35037838 86.0246124,2.96448837 C82.0054909,29.5062207 65.2790345,51.362412 42.9751729,60.6537402 C42.7349306,63.0998283 42.6,65.5866996 42.6,68.1052912 C42.6,71.2030049 42.7341078,74.2119017 42.9727046,77.1428571 C73.9853484,66.6978163 97.2575838,36.5454079 100.690909,0 Z" id="Path" fill="#FFDC4A" fill-rule="nonzero"></path>
                        <path d="M170.4,46.2857143 C165.411208,27.3646401 150.903477,11.7819432 131.672727,3.85714286 C136.587693,22.7940151 151.136952,38.4108025 170.4,46.2857143 Z" id="Path" fill="#FFDC4A" fill-rule="nonzero"></path>
                        <path d="M126.974773,2.96414014 C122.300678,1.35021975 117.38716,0.344351346 112.309091,0 C115.746579,36.5556139 139.035599,66.7126361 170.061846,77.1428571 C170.2807,74.2104336 170.4,71.1973593 170.4,68.0981972 C170.4,65.5808076 170.268359,63.0942284 170.024822,60.6475215 C147.725581,51.3572847 130.993951,29.5027546 126.974773,2.96414014 Z" id="Path" fill="#FFDC4A" fill-rule="nonzero"></path>
                        <path d="M106.44811,11.5714286 C97.9736002,43.2732637 73.6077632,68.4105331 42.6,77.6039074 C48.653839,113.612533 75.4818588,135 106.44811,135 C140.016647,135 164.858143,113.62569 170.4,77.6354846 C139.338617,68.4710562 114.923485,43.3127353 106.44811,11.5714286 Z M106.44811,130.495852 C77.4925982,130.495852 54.3167729,110.646023 47.7215478,80.6897094 C74.1474197,71.6007155 95.6298997,51.1746009 106.444651,25.3180713 C117.284482,51.2386326 138.8275,71.6893073 165.339855,80.7467239 C159.135535,111.545098 136.869516,130.495852 106.44811,130.495852 Z" id="Shape" fill="#FFDC4A" fill-rule="nonzero"></path>
                        <path d="M83.8540922,81.5449488 C80.1206754,80.2300605 75.9232314,81.3765626 73.7114469,84.1029433 C73.032287,87.3693675 75.0650559,90.7109281 78.795332,92.0258164 C82.5326746,93.3427174 86.7332592,92.1928609 88.9442585,89.4684928 C89.6194927,86.2013978 87.5906496,82.8625206 83.8540922,81.5449488 Z" id="Path" fill="#FFDC4A" fill-rule="nonzero"></path>
                        <path d="M124.056635,89.4685977 C126.266449,92.1931305 130.467058,93.3423855 134.202938,92.0260759 C137.935678,90.7111081 139.966509,87.3700164 139.289042,84.102724 C137.078443,81.3768494 132.877835,80.230278 129.145879,81.5445749 C125.409999,82.8622263 123.378383,86.2013053 124.056635,89.4685977 Z" id="Path" fill="#FFDC4A" fill-rule="nonzero"></path>
                    </g>
                </g>
            </g>
        </g>
    </g>
</svg>