<?xml version="1.0" encoding="UTF-8"?>
<svg width="341px" height="60px" viewBox="0 0 341 60" version="1.1" xmlns="http://www.w3.org/2000/svg" xmlns:xlink="http://www.w3.org/1999/xlink">
    <!-- Generator: Sketch 42 (36781) - http://www.bohemiancoding.com/sketch -->
    <title>Group 3</title>
    <desc>Created with Sketch.</desc>
    <defs></defs>
    <g id="Page-1" stroke="none" stroke-width="1" fill="none" fill-rule="evenodd">
        <g id="Artboard" transform="translate(-124.000000, -115.000000)">
            <g id="Group-3" transform="translate(193.000000, 117.000000)">
                <g id="logo" transform="translate(5.142857, 0.000000)" stroke="#FDFF00" stroke-width="2">
                    <path d="M51.1520737,17.1428571 L28.6451613,17.1428571 C28.133638,17.3142866 27.8778802,17.6571403 27.8778802,18.1714286 C27.8778802,18.4571443 27.9631328,18.7428557 28.1336406,19.0285714 L34.7834101,22.8 C41.7173926,26.6857337 45.1843318,31.942824 45.1843318,38.5714286 C45.1843318,43.3143094 43.521906,47.3571261 40.1970046,50.7 C36.8721032,54.0428739 32.8510221,55.7142857 28.1336406,55.7142857 L0,55.7142857 L0,38.5714286 L22.5069124,38.5714286 C23.0184357,38.3999991 23.2741935,38.0571454 23.2741935,37.5428571 C23.2741935,37.2571414 23.1889409,36.97143 23.0184332,36.6857143 L16.3686636,32.9142857 C9.43468115,29.028552 5.96774194,23.7714617 5.96774194,17.1428571 C5.96774194,12.3999763 7.63016771,8.35715957 10.9550691,5.01428571 C14.2799705,1.67141186 18.3010517,0 23.0184332,0 L51.1520737,0 L51.1520737,17.1428571 Z M140.668203,0 L121.912442,55.7142857 L104.861751,55.7142857 L98.0414747,36 L91.2211982,55.7142857 L74.1705069,55.7142857 L55.4147465,0 L73.3179724,0 L81.4170507,23.1428571 L89.516129,0 L106.56682,0 L114.665899,23.1428571 L122.764977,0 L140.668203,0 Z M188.836406,55.7142857 L170.93318,55.7142857 L168.631336,48.8571429 L149.364055,48.8571429 L147.062212,55.7142857 L129.158986,55.7142857 L147.914747,0 L170.080645,0 L188.836406,55.7142857 Z M164.624424,36.8571429 L158.997696,20.2285714 L153.370968,36.8571429 L164.624424,36.8571429 Z M244.251152,18.8571429 C244.251152,24.0571689 242.418221,28.4999816 238.752304,32.1857143 C235.086387,35.871447 230.667461,37.7142857 225.495392,37.7142857 L210.14977,37.7142857 L210.14977,55.7142857 L193.099078,55.7142857 L193.099078,0 L225.495392,0 C230.667461,0 235.086387,1.84283871 238.752304,5.52857143 C242.418221,9.21430414 244.251152,13.6571169 244.251152,18.8571429 Z M227.200461,18.8571429 C227.200461,15.9999857 225.495409,14.5714286 222.085253,14.5714286 L210.14977,14.5714286 L210.14977,23.1428571 L222.085253,23.1428571 C225.495409,23.1428571 227.200461,21.7143 227.200461,18.8571429 Z M265.564516,55.7142857 L248.513825,55.7142857 L248.513825,0 L265.564516,0 L265.564516,55.7142857 Z" id="swapi"></path>
                </g>
                <g id="Group-2" transform="translate(-68.571429, -1.305195)" fill-rule="nonzero">
                    <g id="Imperial_Emblem" fill="#6D1C6D">
                        <g id="s1">
                            <g id="l1" transform="translate(0.083192, 0.006481)">
                                <path d="M29.1310563,0.0911005501 C13.0583679,0.0911005501 0.0138656071,13.2061176 0.0138656071,29.3656873 C0.0138656071,45.525257 13.058366,58.640274 29.1310563,58.6402701 C45.2037466,58.6402701 58.2482508,45.5252609 58.2482508,29.3656873 C58.2482508,13.2061156 45.2037466,0.0911005501 29.1310563,0.0911005501 Z M27.7569034,2.51820547 C27.7732866,2.51737017 27.7900329,2.51900955 27.806422,2.51820547 L27.9302205,4.5034496 C26.2508069,4.58395079 24.6162298,4.83018712 23.0402152,5.23158068 L23.5292171,7.16704045 C19.3924463,8.2205273 15.707815,10.4108008 12.820725,13.3903776 L11.4032418,11.9963513 C10.2503738,13.1854809 9.21967175,14.4916914 8.32068425,15.8921601 L6.66179626,14.7906278 C11.1925265,7.74742662 18.9099802,2.96956294 27.7569034,2.51820547 Z M30.4556905,2.51820547 C39.323184,2.9543265 47.0612002,7.73438187 51.6003202,14.7906278 L49.9414322,15.8921601 C49.0444654,14.495218 48.0147107,13.1892144 46.865061,12.0025731 L45.4475798,13.3903776 C42.5600394,10.4092103 38.8711124,8.22089225 34.7328994,7.16704045 L35.2218993,5.23158068 C33.6458847,4.83018712 32.0113095,4.58395079 30.3318939,4.5034496 L30.4556905,2.51820547 Z M5.33716199,17.093265 L7.11984658,17.9769788 C6.36796885,19.4424976 5.75322726,20.9897842 5.30002204,22.6071405 L7.20650517,23.1485719 C6.65226135,25.1260954 6.35230185,27.2107247 6.35230185,29.3656873 C6.35230185,31.52274 6.65122089,33.6097973 7.20650517,35.5890245 L5.30002204,36.1304559 C5.75291474,37.7452087 6.36889283,39.2911312 7.11984658,40.7543958 L5.33716199,41.6381096 C3.45442685,37.9581638 2.39077969,33.7862293 2.39077969,29.3656873 C2.39077969,24.9451433 3.45442685,20.7732108 5.33716199,17.093265 Z M52.9249544,17.093265 C54.8076896,20.7732108 55.8713329,24.9451433 55.8713329,29.3656873 C55.8713329,33.7862293 54.8076896,37.9581638 52.9249544,41.6381096 L51.1422679,40.7543958 C51.89354,39.2906959 52.5090522,37.7457357 52.9620944,36.1304559 L51.0556113,35.5890245 C51.6108936,33.6097973 51.9098146,31.52274 51.9098146,29.3656873 C51.9098146,27.2107247 51.609857,25.1260954 51.0556113,23.1485719 L52.9620944,22.6071405 C52.5090153,20.9902369 51.893837,19.4421463 51.1422679,17.9769788 L52.9249544,17.093265 Z M8.32068425,42.8392165 C9.22001533,44.2396579 10.2503233,45.545839 11.4032418,46.7350252 L12.820725,45.3409969 C15.707815,48.3205718 19.3924463,50.5108492 23.5292171,51.5643361 L23.0402152,53.4997919 C24.6162298,53.9011836 26.2508069,54.1474238 27.9302205,54.227925 L27.806422,56.2131691 C18.9389324,55.7770442 11.2009142,50.9969888 6.66179626,43.9407468 L8.32068425,42.8392165 Z M49.9476225,42.8392165 L51.6003202,43.9407468 C47.0612002,50.9969888 39.323184,55.7770442 30.4556905,56.2131691 L30.3318939,54.227925 C32.0113095,54.1474238 33.6458847,53.9011836 35.2218993,53.4997919 L34.7328994,51.5643361 C38.8711124,50.5104804 42.5600394,48.3221624 45.4475798,45.3409969 L46.865061,46.7288015 C48.016149,45.540675 49.049559,44.2380458 49.9476225,42.8392165 Z" id="p1"></path>
                            </g>
                        </g>
                    </g>
                    <g id="Group" transform="translate(12.957933, 11.132998)" fill="#E10098">
                        <polygon id="Shape" points="3.03515409 27.9728659 1.69126549 27.1954776 16.6623117 1.21572289 18.0062003 1.99311118"></polygon>
                        <polygon id="Shape" points="1.38352472 25.1199445 31.3256171 25.1199445 31.3256171 26.6747211 1.38352472 26.6747211"></polygon>
                        <path d="M16.9526649,34.6570939 L1.97600983,25.9934292 L2.75190545,24.6469552 L17.7285605,33.3106199 L16.9526649,34.6570939 Z M29.9628452,12.0773359 L14.9861902,3.4136712 L15.7620858,2.06719722 L30.7387409,10.7308619 L29.9628452,12.0773359 Z" id="Shape"></path>
                        <polygon id="Shape" points="2.75601863 12.0713416 1.98012301 10.7249612 16.9567781 2.06129656 17.7326737 3.40777055"></polygon>
                        <path d="M29.6867012,27.9731468 L14.715655,1.99339216 L16.0595436,1.21600388 L31.0305898,27.1957585 L29.6867012,27.9731468 Z M2.5707385,9.69393831 L4.12252973,9.69393831 L4.12252973,27.0212677 L2.5707385,27.0212677 L2.5707385,9.69393831 Z M28.5959602,9.69393831 L30.1477515,9.69393831 L30.1477515,27.0212677 L28.5959602,27.0212677 L28.5959602,9.69393831 Z" id="Shape"></path>
                        <polygon id="Shape" points="16.6884865 33.99903 16.0107463 32.8228322 29.0364446 25.2877854 29.7141847 26.4638896"></polygon>
                        <path d="M32.2043423,27.5270384 C31.3069208,29.0911811 29.3064189,29.6250501 27.7452795,28.7259022 C26.1841401,27.8267543 25.6512961,25.8224038 26.5487176,24.2582611 C27.446139,22.6941184 29.446641,22.1602493 31.0077803,23.0593972 C32.5782679,23.9679112 33.1111118,25.9628957 32.2043423,27.5270384 M6.16042425,12.4569449 C5.26300281,14.0210876 3.26250086,14.5549567 1.70136148,13.6558088 C0.1402221,12.7566608 -0.392621879,10.7523103 0.504799559,9.18816762 C1.402221,7.62402491 3.40272296,7.09015585 4.96386233,7.98930375 C6.52500171,8.89781777 7.05784569,10.8928022 6.16042425,12.4569449 M0.514147699,27.5270384 C-0.383273739,25.9628957 0.14957024,23.9679112 1.71070962,23.0593972 C3.271849,22.1602493 5.26300281,22.6941184 6.16977239,24.2582611 C7.06719383,25.8224038 6.53434985,27.8173882 4.97321047,28.7259022 C3.40272296,29.6250501 1.41156914,29.0911811 0.514147699,27.5270384 M26.5580657,12.4569449 C25.6606443,10.8928022 26.1934882,8.89781777 27.7546276,7.98930375 C29.315767,7.09015585 31.3069208,7.62402491 32.2136904,9.18816762 C33.1111118,10.7523103 32.5782679,12.7472947 31.0171285,13.6558088 C29.4559891,14.5549567 27.4554871,14.0210876 26.5580657,12.4569449 M16.359245,36.6964737 C14.555054,36.6964737 13.0967441,35.2353584 13.0967441,33.4276965 C13.0967441,31.6200345 14.555054,30.1589192 16.359245,30.1589192 C18.163436,30.1589192 19.6217458,31.6200345 19.6217458,33.4276965 C19.6217458,35.2259923 18.163436,36.6964737 16.359245,36.6964737 M16.359245,6.55628678 C14.555054,6.55628678 13.0967441,5.09517144 13.0967441,3.28750951 C13.0967441,1.47984759 14.555054,0.0187322479 16.359245,0.0187322479 C18.163436,0.0187322479 19.6217458,1.47984759 19.6217458,3.28750951 C19.6217458,5.09517144 18.163436,6.55628678 16.359245,6.55628678" id="Shape"></path>
                    </g>
                </g>
            </g>
        </g>
    </g>
</svg>