<svg width="341" height="60" xmlns="http://www.w3.org/2000/svg"><g fill="none" fill-rule="evenodd"><path d="M125.295 19.143h-22.507c-.512.171-.767.514-.767 1.028 0 .286.085.572.255.858l6.65 3.771c6.934 3.886 10.401 9.143 10.401 15.771 0 4.743-1.662 8.786-4.987 12.129s-7.346 5.014-12.064 5.014H74.143V40.571H96.65c.511-.171.767-.514.767-1.028a1.66 1.66 0 0 0-.256-.857l-6.65-3.772c-6.933-3.885-10.4-9.143-10.4-15.771 0-4.743 1.662-8.786 4.987-12.129S92.444 2 97.16 2h28.134v17.143zM214.81 2l-18.756 55.714h-17.05L172.185 38l-6.82 19.714h-17.052L129.558 2h17.903l8.099 23.143L163.659 2h17.05l8.1 23.143L196.908 2h17.903zm48.168 55.714h-17.903l-2.302-6.857h-19.267l-2.302 6.857h-17.903L222.058 2h22.166l18.755 55.714zm-24.212-18.857l-5.626-16.628-5.627 16.628h11.253zm79.627-18c0 5.2-1.833 9.643-5.499 13.329-3.666 3.685-8.085 5.528-13.257 5.528h-15.345v18h-17.051V2h32.396c5.172 0 9.591 1.843 13.257 5.529 3.666 3.685 5.499 8.128 5.499 13.328zm-17.05 0c0-2.857-1.706-4.286-5.116-4.286h-11.935v8.572h11.935c3.41 0 5.115-1.429 5.115-4.286zm38.363 36.857h-17.05V2h17.05v55.714z" stroke="#FDFF00" stroke-width="2"/><g fill-rule="nonzero"><path d="M29.643.792C13.57.792.526 13.907.526 30.067c0 16.16 13.044 29.275 29.117 29.275S58.76 46.227 58.76 30.067C58.76 13.907 45.716.792 29.643.792zM28.269 3.22h.05l.123 1.986c-1.68.08-3.314.326-4.89.728l.489 1.935a22.727 22.727 0 0 0-10.709 6.224l-1.417-1.394a24.973 24.973 0 0 0-3.083 3.895l-1.658-1.101C11.704 8.449 19.422 3.67 28.269 3.219zm2.698 0c8.868.437 16.606 5.217 21.145 12.273l-1.659 1.101a25.005 25.005 0 0 0-3.076-3.89l-1.418 1.389a22.732 22.732 0 0 0-10.714-6.224l.489-1.935a24.555 24.555 0 0 0-4.89-.728l.123-1.986zM5.85 17.795l1.783.883a24.799 24.799 0 0 0-1.82 4.63l1.906.542a23.005 23.005 0 0 0-.854 6.217c0 2.157.299 4.244.854 6.223l-1.906.542a24.792 24.792 0 0 0 1.82 4.624l-1.783.883a26.87 26.87 0 0 1-2.946-12.272 26.87 26.87 0 0 1 2.946-12.272zm47.588 0a26.87 26.87 0 0 1 2.946 12.272 26.87 26.87 0 0 1-2.946 12.272l-1.783-.883a24.777 24.777 0 0 0 1.82-4.624l-1.907-.542c.556-1.979.855-4.066.855-6.223 0-2.155-.3-4.24-.855-6.217l1.907-.542a24.814 24.814 0 0 0-1.82-4.63l1.783-.883zM8.832 43.54c.9 1.4 1.93 2.706 3.083 3.895l1.417-1.394a22.727 22.727 0 0 0 10.709 6.224l-.489 1.935c1.576.401 3.21.648 4.89.728l-.124 1.985c-8.867-.436-16.605-5.216-21.144-12.272l1.658-1.101zm41.627 0l1.653 1.101c-4.539 7.056-12.277 11.836-21.145 12.272l-.123-1.985c1.68-.08 3.314-.327 4.89-.728l-.49-1.935a22.732 22.732 0 0 0 10.715-6.224l1.418 1.388a25.004 25.004 0 0 0 3.082-3.89z" fill="#6D1C6D"/><g fill="#E10098"><path d="M16.422 39.8l-1.344-.777 14.97-25.98 1.345.778z"/><path d="M14.77 36.948h29.942v1.555H14.77z"/><path d="M30.34 46.485L15.362 37.82l.775-1.346 14.977 8.663-.776 1.347zm13.01-22.58l-14.977-8.664.776-1.346 14.976 8.664-.776 1.346z"/><path d="M16.143 23.9l-.776-1.347 14.976-8.664.776 1.347z"/><path d="M43.073 39.8l-14.97-25.979 1.343-.777 14.971 25.98-1.344.777zM15.957 21.523h1.552v17.327h-1.552V21.522zm26.025 0h1.552v17.327h-1.552V21.522z"/><path d="M30.075 45.827l-.678-1.176 13.026-7.535.678 1.176z"/><path d="M45.59 39.355a3.264 3.264 0 0 1-4.458 1.199 3.277 3.277 0 0 1-1.197-4.468 3.264 3.264 0 0 1 4.46-1.199 3.263 3.263 0 0 1 1.196 4.468m-26.044-15.07a3.264 3.264 0 0 1-4.46 1.199 3.277 3.277 0 0 1-1.196-4.468 3.264 3.264 0 0 1 4.46-1.199 3.28 3.28 0 0 1 1.196 4.468M13.9 39.355a3.28 3.28 0 0 1 1.196-4.468 3.266 3.266 0 0 1 4.46 1.2 3.28 3.28 0 0 1-1.197 4.467c-1.57.899-3.562.365-4.46-1.2m26.045-15.07a3.28 3.28 0 0 1 1.196-4.467 3.266 3.266 0 0 1 4.46 1.199 3.28 3.28 0 0 1-1.197 4.468 3.264 3.264 0 0 1-4.46-1.2m-10.198 24.24a3.263 3.263 0 0 1-3.263-3.269 3.263 3.263 0 1 1 6.525 0 3.269 3.269 0 0 1-3.262 3.27m0-30.14a3.263 3.263 0 0 1-3.263-3.27 3.263 3.263 0 1 1 6.525 0 3.263 3.263 0 0 1-3.262 3.27"/></g></g></g></svg>