<svg width="315" height="90" xmlns="http://www.w3.org/2000/svg"><g fill-rule="nonzero" fill="none"><path d="M0 44.838c0 7.56 7.3 14.617 18.81 18.595-2.298 11.7-.411 21.13 5.89 24.804 6.477 3.777 16.126 1.163 25.284-6.932 8.927 7.768 17.95 10.825 24.245 7.14 6.471-3.787 8.439-13.857 6.077-25.922C92.294 58.515 99 52.498 99 44.838c0-7.384-7.314-13.772-18.669-17.725 2.543-12.564.388-21.765-6.174-25.591-6.326-3.689-15.453-.474-24.512 7.497C40.221.56 31.184-2.024 24.63 1.813c-6.32 3.7-8.124 13.301-5.818 25.217C7.689 30.95 0 37.484 0 44.838z" fill="#FFF"/><path d="M78.384 31.579a58.628 58.628 0 0 0-2.836-.903c.158-.648.304-1.298.438-1.952 2.147-10.52.744-18.993-4.05-21.783-4.597-2.675-12.114.114-19.706 6.782a59.14 59.14 0 0 0-2.194 2.032 53.839 53.839 0 0 0-1.46-1.36C40.619 7.263 32.644 4.258 27.855 7.056c-4.592 2.683-5.952 10.65-4.02 20.619.193.987.41 1.97.652 2.945a58.051 58.051 0 0 0-3.261 1.035C11.898 34.94 5.94 40.083 5.94 45.42c0 5.512 6.395 11.04 16.112 14.391.788.271 1.582.522 2.382.752a58.64 58.64 0 0 0-.692 3.175c-1.843 9.796-.404 17.574 4.176 20.24 4.73 2.753 12.67-.076 20.401-6.897a50.091 50.091 0 0 0 1.839-1.71 58.042 58.042 0 0 0 2.381 2.193c7.489 6.504 14.885 9.13 19.46 6.456 4.727-2.76 6.262-11.117 4.268-21.283a50.77 50.77 0 0 0-.528-2.377 51.345 51.345 0 0 0 1.638-.516c10.101-3.378 16.673-8.839 16.673-14.424 0-5.355-6.15-10.534-15.666-13.84z" fill="#53C1DE"/><path d="M76.883 56.188c-.486.16-.984.315-1.491.465-1.124-3.547-2.64-7.318-4.495-11.214 1.77-3.804 3.228-7.526 4.32-11.05.908.262 1.79.539 2.639.83C86.07 38.04 91.08 42.21 91.08 45.42c0 3.422-5.411 7.865-14.197 10.768zm-3.646 7.204c.888 4.474 1.015 8.52.427 11.682-.53 2.842-1.592 4.737-2.906 5.495-2.798 1.615-8.78-.484-15.231-6.02a54.31 54.31 0 0 1-2.233-2.03c2.502-2.727 5.001-5.899 7.44-9.42 4.292-.38 8.346-1.001 12.023-1.849.18.73.341 1.443.48 2.142zM36.37 80.29c-2.733.962-4.91.99-6.226.233-2.8-1.61-3.963-7.827-2.376-16.165a54.13 54.13 0 0 1 .648-2.94c3.636.803 7.66 1.38 11.962 1.728 2.456 3.446 5.028 6.613 7.62 9.387-.551.532-1.115 1.05-1.692 1.553-3.444 3.003-6.895 5.132-9.936 6.204zM23.566 56.167c-4.328-1.476-7.903-3.393-10.353-5.485-2.201-1.88-3.313-3.747-3.313-5.262 0-3.222 4.819-7.334 12.856-10.128a54.823 54.823 0 0 1 3.055-.959c1.11 3.603 2.568 7.37 4.326 11.18-1.78 3.866-3.259 7.693-4.38 11.338a46.806 46.806 0 0 1-2.191-.684zm4.292-29.134c-1.668-8.502-.56-14.916 2.227-16.525 2.97-1.714 9.536.73 16.457 6.858.443.392.887.802 1.332 1.227-2.578 2.76-5.127 5.905-7.561 9.33-4.175.387-8.171 1.007-11.845 1.837a55.31 55.31 0 0 1-.61-2.728zm38.288 9.428a120.196 120.196 0 0 0-2.699-4.427c2.833.357 5.546.83 8.094 1.41a80.52 80.52 0 0 1-2.841 7.623 131.683 131.683 0 0 0-2.554-4.606zM50.532 21.295c1.75 1.89 3.501 4 5.224 6.288a111.971 111.971 0 0 0-10.491-.002 83.445 83.445 0 0 1 5.267-6.286zM34.818 36.487a111.646 111.646 0 0 0-2.505 4.577 83.304 83.304 0 0 1-2.82-7.66 85.772 85.772 0 0 1 8.046-1.377 111.116 111.116 0 0 0-2.72 4.46zm2.802 22.597c-2.907-.324-5.648-.762-8.18-1.312a84.64 84.64 0 0 1 2.877-7.814 110.963 110.963 0 0 0 5.303 9.126zm13.017 10.73a85.049 85.049 0 0 1-5.34-6.374c1.7.066 3.432.1 5.193.1 1.81 0 3.598-.04 5.358-.119-1.728 2.343-3.474 4.485-5.21 6.392zm18.099-19.992c1.186 2.696 2.186 5.306 2.98 7.786a80.68 80.68 0 0 1-8.28 1.408 132.156 132.156 0 0 0 2.726-4.504 120.02 120.02 0 0 0 2.574-4.69zm-5.86 2.8a123.922 123.922 0 0 1-4.257 6.852c-2.634.188-5.356.285-8.129.285a124.8 124.8 0 0 1-8.037-.253 107.216 107.216 0 0 1-8.125-13.995 107.182 107.182 0 0 1 3.776-7.136v.001a106.218 106.218 0 0 1 4.304-6.833 107.731 107.731 0 0 1 16.18.003 113.834 113.834 0 0 1 4.277 6.81 123.843 123.843 0 0 1 3.826 7.102 113.815 113.815 0 0 1-3.814 7.165zM70.7 10.397c2.973 1.71 4.129 8.603 2.261 17.643a49.84 49.84 0 0 1-.399 1.76c-3.682-.848-7.681-1.478-11.868-1.87-2.44-3.463-4.967-6.613-7.503-9.338a55.694 55.694 0 0 1 2.04-1.868c6.554-5.687 12.679-7.932 15.47-6.327z" fill="#FFF"/><path d="M50.49 36.593c4.374 0 7.92 3.543 7.92 7.912 0 4.37-3.546 7.913-7.92 7.913-4.374 0-7.92-3.543-7.92-7.913s3.546-7.912 7.92-7.912" fill="#53C1DE"/><g fill="#FFC500"><path d="M143.378 48.825l2.873 8.44c1.555 4.564 2.943 8.214 3.124 8.214a.012.012 0 0 0 .008-.004c.199-.175 5.823-16.512 5.823-16.512h10.9l-13.15 38.327h-7.577s-8.087-23.361-8.054-23.45l-8.441 23.156h-7.5l-12.986-38.17 10.848.006s5.942 16.846 6.021 16.846l5.93-16.854 12.18.001zm-38.684-2.654l1.194 3.508 12.985 38.17.612 1.798h11.254l.636-1.743 5.861-16.077 1.597 4.636c1.345 3.899 2.692 7.797 4.04 11.694l.619 1.784h11.357l.615-1.79 13.15-38.326 1.206-3.514h-16.505l-.616 1.79c-1.13 3.28-2.267 6.56-3.412 9.836-.177-.508-.353-1.018-.526-1.528l-2.873-8.44-.612-1.796H129.32l-.624 1.772-3.464 9.847a4340.77 4340.77 0 0 1-3.486-9.842l-.624-1.769h-1.874l-10.848-.008-3.706-.002zm206.567 2.506l-.024 10.045s-10.82-.035-16.32-.035c-1.83 0-3.071.004-3.13.014-.947.173-1.55 2.19-1.282 3.074.132.447 1.125 1.909 2.198 3.252 1.07 1.343 2.83 3.54 3.904 4.882 2.757 3.442 3.135 4.12 3.39 6.097.415 3.21-1.103 6.683-3.92 8.973-2.824 2.297-2.7 2.314-23.659 2.314h-.92c-12.747-.004-19.489-.11-20.47-.328-1.743-.394-4.522-2.662-11.862-9.706-2.64-2.531-5.075-4.747-5.2-4.748-.003 0-.004.002-.004.006l-.087 14.777-11.898-.053-.074-38.114h26.536c7.997.289 13.409 8.257 12.332 13.34-.244 1.152-.868 2.824-1.386 3.712-1.064 1.823-3.772 4.163-5.97 5.168-.811.367-1.474.795-1.474.947 0 .567 2.672 3.198 3.672 3.616.856.358 3.345.437 14.322.437l3.515.001c11.035 0 10.48-.08 11.332-1.903.597-1.27.143-2.028-4.056-6.759-5.32-5.294-4.763-7.83-4.8-9.703-.075-2.244 1.692-9.304 10.876-9.304l24.46-.002zm-71.28 17.608c5.094 0 6.128-.079 7.212-.55 3.659-1.592 3.855-6.291.345-8.377-.77-.458-1.757-.533-7.279-.563l-6.39-.034c.053.05-.02 9.139-.02 9.139s1.6.385 6.131.385zm73.938-20.26h-27.117c-5.314 0-8.457 2.097-10.157 3.857-2.768 2.862-3.418 6.466-3.368 8.164.002.142.001.287 0 .439-.025 2.76.381 5.886 5.52 11.02 1.016 1.144 2.715 3.063 3.359 4.016-1.405.173-4.965.173-8.706.173h-1.588l-1.927-.001c-6.597 0-12.16-.02-13.3-.244a6.391 6.391 0 0 1-.628-.497c2.28-1.403 4.584-3.58 5.669-5.44.658-1.131 1.384-3.064 1.69-4.497.676-3.19-.44-7.04-2.984-10.299-2.968-3.802-7.286-6.077-11.847-6.241l-.048-.002h-29.24l.006 2.657.073 38.114.005 2.635 2.635.012 11.898.052 2.647.012.016-2.648.05-8.852c.243.23.495.47.753.717 8.03 7.704 10.724 9.839 13.112 10.379.657.145 1.742.388 21.054.393h.92c10.457 0 15.705 0 18.826-.3 3.576-.347 4.726-1.158 6.45-2.562l.058-.047c3.54-2.88 5.41-7.236 4.877-11.37-.348-2.688-1.06-3.805-3.951-7.415l-.86-1.074a4161.346 4161.346 0 0 1-3.042-3.804 26.933 26.933 0 0 1-1.486-2.033l1.63-.002c5.434 0 16.203.036 16.31.037l2.655.008.006-2.655.025-10.046.005-2.656zm-77.401 17.511l.012-2.174c.003-.663.006-1.327.007-1.936l3.708.02c2.131.011 5.337.03 5.962.206.798.485 1.243 1.234 1.195 2.01-.027.419-.226 1.189-1.267 1.64-.58.253-1.504.331-6.154.331-1.475 0-2.613-.043-3.463-.097zM197.796 48.52l13.353 38.426-10.88.05-1.807-5.772-19.455-.156-1.717 5.778-10.772-.113 13.185-38.197 18.093-.016zm-8.75 5.634c-.028.11-1.705 4.713-3.389 9.316-1.696 4.64-3.399 9.282-3.423 9.317.046-.013 6.071-.026 9.933-.026 1.807 0 3.14.003 3.165.01-.068-.175-6.267-18.393-6.287-18.617v-.002.002zm10.634-8.288l-1.886.002-18.093.017-1.888.002-.616 1.786-13.185 38.196-1.2 3.479 3.68.038 10.77.113 2 .02.57-1.916 1.149-3.866 15.529.125 1.229 3.927.585 1.87 1.957-.009 10.881-.05 3.71-.017-1.218-3.505L200.3 47.652l-.62-1.786zm-13.63 24.247c.503-1.37 1.18-3.22 2.098-5.732l.793-2.17.719 2.121c.214.632 1.155 3.405 1.962 5.778-2.4 0-4.206 0-5.571.003zm16.246-67.457v9.48h-18.984v28.996h-11.318V12.114l-22.16.062c-2.671 0-3.03 2.128-3.03 2.944 0 1.001.654 2.002 4.24 6.543 2.326 2.95 4.464 5.894 4.746 6.537 1.538 3.54-.451 9.057-4.074 11.297-2.581 1.596-2.14 1.635-21.313 1.635H106.65v-10.65H139.1l.958-.667c.646-.45 1.02-1.07 1.163-1.92.199-1.22.096-1.378-3.911-5.893-4.736-5.337-5.237-6.311-4.991-9.719.278-3.888 3.745-9.537 9.803-9.537l60.175-.09zM204.948 0l-2.656.004-60.175.09c-3.466 0-6.685 1.498-9.062 4.217-1.927 2.205-3.192 5.115-3.383 7.783-.322 4.479.709 6.097 5.653 11.669 1.436 1.617 2.8 3.154 3.255 3.807a.426.426 0 0 1-.017.053l-.024.017-.272.19H104v15.954h26.403c9.453 0 14.119-.008 16.868-.21 3.145-.23 4.148-.77 5.652-1.705l.187-.116c4.727-2.924 7.163-9.887 5.112-14.61-.633-1.444-4.641-6.545-5.096-7.122-1.258-1.594-3.335-4.223-3.664-4.984a.876.876 0 0 1 .04-.176c.055-.014.16-.033.332-.033l19.508-.056v29.012h16.621V14.788h18.985V0zm28.192 2.964l13.317 38.525-10.861-.06-1.764-5.77-19.368-.087-1.73 5.56h-11.06l13.17-38.168h18.296zm-15.515 24.404l13.192-.016c.045 0-6.411-18.961-6.454-18.975-.047-.001-6.887 18.991-6.738 18.991zM235.029.312h-22.073l-.616 1.787-13.172 38.168-1.214 3.517h16.733l.58-1.864 1.147-3.687 15.456.069 1.192 3.903.571 1.866 1.951.01 10.862.06 3.744.021-1.223-3.539L235.65 2.097l-.621-1.785zm-13.72 24.4c.986-2.8 1.982-5.597 2.987-8.39.953 2.793 1.901 5.587 2.846 8.383l-5.834.007zM270.54 2.964c8.592 0 14.553.122 15.7.321 2.652.462 5.048 1.877 6.844 4.052 1.88 2.273 2.31 3.361 2.556 6.477.351 4.399-1.74 8.194-5.867 10.657-1.203.719-2.438 1.418-2.747 1.558-.474.215-.41.421.437 1.415.546.64 1.495 1.552 2.105 2.026l1.113.865 20.575.295.202 10.502h-12.615c-9.757 0-12.878-.09-13.794-.398-1.369-.464-4.662-3.255-11.359-9.626l-4.779-4.549.05 14.573h-12.277V2.964h13.856zm-1.808 17.16h6.519c6.344 0 6.542-.02 7.447-.698 1.618-1.213 2.19-2.463 2.019-4.383-.175-1.98-.938-3.01-2.85-3.838-1.078-.471-2.115-.547-7.2-.547h-5.935v9.467zM270.54.313h-16.505v43.472h17.59l-.01-2.661-.03-8.36.28.266c8.28 7.88 10.723 9.67 12.335 10.216 1.236.418 3.308.539 14.645.539h15.317l-.051-2.703-.202-10.502-.049-2.563-2.563-.037-19.688-.282-.412-.321a8.958 8.958 0 0 1-.46-.391l.4-.238c4.972-2.968 7.578-7.76 7.148-13.144-.286-3.633-.935-5.27-3.155-7.956-2.183-2.642-5.178-4.408-8.434-4.974-1.811-.314-10.899-.361-16.156-.361zm.843 12.998h3.284c4.649 0 5.57.077 6.138.325 1.077.466 1.187.693 1.27 1.643.086.944-.031 1.324-.968 2.025l-.074.055c-.618.115-2.911.115-5.782.115h-3.868V13.31z"/></g></g></svg>