<svg width="345" height="145" xmlns="http://www.w3.org/2000/svg"><g fill="none" fill-rule="evenodd"><path fill="#333" d="M0 0h345v145H0z"/><path d="M142.191 63.939h-15.484c-.352.12-.528.358-.528.716 0 .2.059.398.176.597l4.575 2.627c4.77 2.706 7.155 6.367 7.155 10.983 0 3.303-1.143 6.119-3.43 8.447-2.288 2.328-5.054 3.492-8.3 3.492H107V78.862h15.484c.352-.12.528-.358.528-.716 0-.2-.059-.398-.176-.597l-4.575-2.627c-4.77-2.706-7.155-6.367-7.155-10.983 0-3.303 1.143-6.119 3.43-8.447 2.288-2.328 5.055-3.492 8.3-3.492h19.355v11.939zM203.775 52l-12.903 38.801h-11.73l-4.692-13.73-4.693 13.73h-11.73L145.124 52h12.317l5.571 16.117L168.584 52h11.73l5.573 16.117L191.459 52h12.316zm33.139 38.801h-12.317l-1.584-4.775h-13.255l-1.584 4.775h-12.317L208.761 52h15.25l12.903 38.801zm-16.657-13.133l-3.871-11.58-3.871 11.58h7.742zm54.78-12.535c0 3.621-1.26 6.715-3.783 9.282-2.522 2.567-5.562 3.85-9.12 3.85h-10.557v12.536h-11.73V52h22.287c3.558 0 6.598 1.283 9.12 3.85 2.522 2.567 3.783 5.661 3.783 9.283zm-11.73 0c0-1.99-1.173-2.985-3.519-2.985h-8.211v5.97h8.211c2.346 0 3.52-.996 3.52-2.985zM289.7 90.8h-11.73V52h11.73v38.801z" stroke="#FDFF00" stroke-width="2"/><g fill-rule="nonzero"><path d="M75.963 51.068c-10.983 0-19.897 9.18-19.897 20.493 0 11.311 8.914 20.492 19.897 20.492 10.983 0 19.897-9.18 19.897-20.492 0-11.312-8.914-20.493-19.897-20.493zm-.939 1.7h.034l.084 1.389a16.408 16.408 0 0 0-3.341.51l.334 1.354a15.452 15.452 0 0 0-7.317 4.357l-.969-.976a17.423 17.423 0 0 0-2.106 2.727l-1.134-.771c3.096-4.93 8.37-8.275 14.415-8.59zm1.844 0c6.06.305 11.347 3.65 14.45 8.59l-1.135.771a17.445 17.445 0 0 0-2.102-2.723l-.968.972a15.455 15.455 0 0 0-7.322-4.357l.334-1.354a16.408 16.408 0 0 0-3.341-.51l.084-1.39zM59.704 62.97l1.218.618a17.613 17.613 0 0 0-1.243 3.242l1.302.379a16.47 16.47 0 0 0-.583 4.352c0 1.51.204 2.97.583 4.356l-1.302.379c.309 1.13.73 2.212 1.243 3.237l-1.218.618a19.181 19.181 0 0 1-2.013-8.59c0-3.095.726-6.015 2.013-8.591zm32.518 0a19.181 19.181 0 0 1 2.014 8.59c0 3.095-.727 6.015-2.014 8.591l-1.218-.618a17.598 17.598 0 0 0 1.244-3.237l-1.303-.38c.38-1.385.584-2.846.584-4.355a16.47 16.47 0 0 0-.584-4.352l1.303-.38a17.624 17.624 0 0 0-1.244-3.24l1.218-.62zm-30.48 18.022c.615.98 1.32 1.895 2.107 2.727l.969-.976a15.452 15.452 0 0 0 7.317 4.357l-.334 1.354c1.077.281 2.194.454 3.341.51l-.084 1.39c-6.06-.306-11.347-3.652-14.449-8.59l1.134-.772zm28.446 0l1.13.771c-3.103 4.94-8.39 8.285-14.45 8.59l-.084-1.389a16.408 16.408 0 0 0 3.341-.51l-.334-1.354a15.455 15.455 0 0 0 7.322-4.357l.968.972a17.443 17.443 0 0 0 2.107-2.723z" fill="#6D1C6D"/><g fill="#E10098"><path d="M66.929 78.374l-.919-.544 10.23-18.186.919.544z"/><path d="M65.8 76.377h20.46v1.088H65.8z"/><path d="M76.439 83.053l-10.234-6.065.53-.942 10.234 6.065-.53.942zm8.89-15.806l-10.234-6.064.53-.943 10.234 6.065-.53.942z"/><path d="M66.738 67.243l-.53-.942 10.234-6.065.53.943z"/><path d="M85.14 78.374L74.91 60.188l.919-.544 10.23 18.186-.918.544zM66.612 65.58h1.06v12.129h-1.06v-12.13zm17.784 0h1.06v12.129h-1.06v-12.13z"/><path d="M76.258 82.592l-.463-.823 8.901-5.274.463.823z"/><path d="M86.86 78.062a2.202 2.202 0 0 1-3.046.84c-1.067-.63-1.431-2.033-.818-3.128a2.202 2.202 0 0 1 3.047-.84c1.073.637 1.438 2.033.818 3.128M69.064 67.513a2.202 2.202 0 0 1-3.047.84c-1.067-.63-1.43-2.033-.817-3.128a2.202 2.202 0 0 1 3.047-.84c1.066.637 1.43 2.033.817 3.128m-3.858 10.549c-.613-1.095-.25-2.491.818-3.127 1.066-.63 2.427-.256 3.047.839.613 1.095.249 2.491-.818 3.127a2.2 2.2 0 0 1-3.047-.839m17.797-10.549c-.614-1.095-.25-2.491.817-3.127 1.067-.63 2.428-.256 3.047.839.614 1.095.25 2.491-.817 3.127a2.202 2.202 0 0 1-3.047-.839m-6.97 16.968c-1.232 0-2.229-1.023-2.229-2.289 0-1.265.997-2.288 2.23-2.288 1.232 0 2.229 1.023 2.229 2.288 0 1.26-.997 2.289-2.23 2.289m0-21.099c-1.232 0-2.229-1.022-2.229-2.288 0-1.265.997-2.288 2.23-2.288 1.232 0 2.229 1.023 2.229 2.288 0 1.266-.997 2.288-2.23 2.288"/></g></g></g></svg>