<svg width="345" height="145" xmlns="http://www.w3.org/2000/svg"><g fill="none" fill-rule="evenodd"><path fill="#FFF" d="M0 0h345v145H0z"/><g fill-rule="nonzero"><path d="M51.11 72.585a33.216 33.216 0 0 0-1.61-.513c.09-.368.173-.739.25-1.11 1.218-5.983.421-10.803-2.3-12.39-2.608-1.521-6.873.066-11.182 3.858-.424.375-.84.76-1.245 1.156a30.579 30.579 0 0 0-.828-.774c-4.516-4.056-9.041-5.765-11.759-4.173-2.606 1.526-3.378 6.057-2.28 11.727.108.561.232 1.12.369 1.675-.64.184-1.259.38-1.85.589C13.38 74.496 10 77.422 10 80.457c0 3.135 3.629 6.279 9.143 8.185.447.154.898.297 1.352.428-.148.598-.279 1.2-.393 1.805-1.046 5.572-.229 9.996 2.37 11.512 2.684 1.566 7.19-.044 11.577-3.923a28.45 28.45 0 0 0 1.043-.973c.44.429.89.845 1.352 1.248 4.25 3.699 8.446 5.193 11.043 3.672 2.682-1.57 3.553-6.323 2.422-12.105a28.932 28.932 0 0 0-.3-1.352c.316-.094.627-.192.93-.293C56.27 86.74 60 83.634 60 80.457c0-3.046-3.49-5.991-8.89-7.872z" fill="#53C1DE"/><path d="M49.955 86.007c-.275.09-.557.177-.845.261-.636-1.992-1.495-4.11-2.547-6.299 1.004-2.137 1.83-4.228 2.448-6.207a31.9 31.9 0 0 1 1.496.466C55.16 75.812 58 78.154 58 79.958c0 1.923-3.066 4.418-8.045 6.049zm-2.066 4.046c.504 2.514.576 4.786.242 6.563-.3 1.596-.902 2.66-1.647 3.087-1.585.907-4.975-.272-8.63-3.382a30.68 30.68 0 0 1-1.265-1.14c1.417-1.533 2.834-3.314 4.216-5.292 2.432-.214 4.729-.562 6.812-1.038.103.409.194.81.272 1.202zM27 99.546c-1.549.54-2.782.556-3.528.131-1.586-.904-2.246-4.397-1.346-9.08.107-.554.23-1.105.367-1.651 2.06.45 4.34.774 6.778.97a51.805 51.805 0 0 0 4.318 5.273c-.313.299-.632.59-.959.872-1.951 1.687-3.907 2.883-5.63 3.485zm-7.255-13.551c-2.453-.829-4.478-1.906-5.867-3.08C12.63 81.857 12 80.808 12 79.957c0-1.81 2.73-4.12 7.285-5.69a31.264 31.264 0 0 1 1.73-.538 50.589 50.589 0 0 0 2.452 6.28 51.357 51.357 0 0 0-2.482 6.37 26.693 26.693 0 0 1-1.241-.385zm2.432-16.366c-.946-4.775-.318-8.378 1.262-9.282 1.683-.963 5.403.41 9.325 3.853.25.22.503.45.755.688a51.016 51.016 0 0 0-4.285 5.242c-2.365.217-4.63.565-6.712 1.031a30.839 30.839 0 0 1-.345-1.532zm21.696 5.297a67.41 67.41 0 0 0-1.53-2.487c1.605.2 3.143.466 4.586.792a44.982 44.982 0 0 1-1.61 4.282 73.784 73.784 0 0 0-1.446-2.587zm-8.848-8.52a45.547 45.547 0 0 1 2.96 3.533 64.002 64.002 0 0 0-5.945-.002 46.974 46.974 0 0 1 2.985-3.53zM26.12 74.94a62.549 62.549 0 0 0-1.42 2.571 46.535 46.535 0 0 1-1.598-4.302 48.99 48.99 0 0 1 4.56-.774 62.319 62.319 0 0 0-1.542 2.505zm1.588 12.693a46.238 46.238 0 0 1-4.636-.736 47.28 47.28 0 0 1 1.63-4.39 62.169 62.169 0 0 0 3.006 5.126zm7.375 6.028a47.876 47.876 0 0 1-3.026-3.58c.963.037 1.945.056 2.943.056a68.92 68.92 0 0 0 3.036-.067 45.277 45.277 0 0 1-2.953 3.59zM45.34 82.43a44.794 44.794 0 0 1 1.689 4.374 46.082 46.082 0 0 1-4.692.79 74.113 74.113 0 0 0 1.544-2.53c.506-.867.993-1.746 1.459-2.634zm-3.32 1.573a69.514 69.514 0 0 1-2.413 3.849c-1.492.105-3.034.16-4.606.16-1.565 0-3.088-.049-4.554-.143a60.154 60.154 0 0 1-4.604-7.86 60.03 60.03 0 0 1 2.14-4.01v.001a59.592 59.592 0 0 1 2.438-3.838 61.576 61.576 0 0 1 9.169.001 63.862 63.862 0 0 1 2.423 3.826 69.373 69.373 0 0 1 2.168 3.99 63.748 63.748 0 0 1-2.16 4.024h-.001zm4.432-23.72c1.685.96 2.34 4.833 1.282 9.91-.07.332-.145.661-.227.99a52.023 52.023 0 0 0-6.725-1.051c-1.382-1.946-2.814-3.715-4.251-5.246a31.46 31.46 0 0 1 1.156-1.048c3.714-3.195 7.184-4.457 8.765-3.555z" fill="#FFF"/><path d="M35.5 76a4.5 4.5 0 1 1 0 9 4.5 4.5 0 0 1 0-9" fill="#53C1DE"/></g><g fill="#333" fill-rule="nonzero"><path d="M123.66 71.192h-4.385l-6.33 16.647h3.965l1.035-2.82h5.982l-1.083-3.12h-3.938l2.562-7.163 4.557 13.103h3.966zM190.27 87.84V71.191h3.523V84.72h6.946v3.12zM210.573 87.84V71.191h3.523V84.72h6.947v3.12zM170.76 74.176c2.914 0 5.284 2.4 5.284 5.353 0 2.95-2.37 5.352-5.284 5.352-2.913 0-5.283-2.401-5.283-5.352 0-2.952 2.37-5.353 5.283-5.353zm0-3.258c-4.693 0-8.498 3.855-8.498 8.61 0 4.756 3.805 8.611 8.498 8.611 4.694 0 8.5-3.855 8.5-8.61 0-4.756-3.806-8.61-8.5-8.61zM237.237 74.176c2.914 0 5.284 2.4 5.284 5.353 0 2.95-2.37 5.352-5.284 5.352-2.913 0-5.283-2.401-5.283-5.352 0-2.952 2.37-5.353 5.283-5.353zm0-3.258c-4.693 0-8.499 3.855-8.499 8.61 0 4.756 3.806 8.611 8.5 8.611 4.693 0 8.498-3.855 8.498-8.61 0-4.756-3.805-8.61-8.499-8.61zM147.901 71.192h-7.661V87.84h3.498v-5.728h4.163c2.92 0 5.288-2.501 5.288-5.46 0-2.958-2.367-5.459-5.288-5.459zm0 7.66h-4.163V74.45h4.163c1.143 0 2.073 1.044 2.073 2.201 0 1.158-.93 2.202-2.073 2.202z"/><path d="M137.22 92.892a.899.899 0 0 0-.738.387s-.789.912-1.214 1.343a19.521 19.521 0 0 1-6.229 4.255 19.248 19.248 0 0 1-7.626 1.56c-2.646 0-5.212-.525-7.626-1.56a19.517 19.517 0 0 1-6.229-4.255 19.806 19.806 0 0 1-4.2-6.31 19.954 19.954 0 0 1-1.539-7.727c0-2.68.518-5.28 1.54-7.726a19.8 19.8 0 0 1 4.2-6.31 19.519 19.519 0 0 1 6.228-4.256 19.245 19.245 0 0 1 7.626-1.56c2.646 0 5.212.525 7.626 1.56 1.7.728 3.272 1.687 4.697 2.858-.076.227-.119.47-.119.724 0 1.237.99 2.24 2.21 2.24 1.222 0 2.212-1.003 2.212-2.24 0-1.237-.99-2.24-2.211-2.24-.303 0-.592.062-.855.175a21.144 21.144 0 0 0-13.56-4.908c-11.82 0-21.403 9.708-21.403 21.683 0 11.976 9.583 21.684 21.403 21.684 6.612 0 12.521-3.04 16.447-7.813a.92.92 0 0 0 .264-.648.91.91 0 0 0-.904-.916z"/></g><path d="M262.734 110.88H87.3V50.29h175.434z"/><g fill="#E10098" fill-rule="nonzero"><path d="M294.482 92.938l-1.858-1.055 20.723-35.235 1.858 1.054z"/><path d="M291.818 88.906h41.129v2.419h-41.13z"/><path d="M313.2 101.002l-20.576-11.577 1.066-1.797 20.576 11.577-1.066 1.797zm17.876-30.175L310.498 59.25l1.066-1.797 20.576 11.577-1.064 1.796z"/><path d="M293.696 71.164l-1.072-1.842 20.702-11.868 1.072 1.842z"/><path d="M330.314 92.938L309.95 57.702l1.825-1.054 20.366 35.235-1.826 1.055zm-36.884-24.79h2.112v23.5h-2.112v-23.5zm35.4 0h2.112v23.5h-2.112v-23.5z"/><path d="M312.896 100.196l-.917-1.524 17.632-9.766.916 1.524z"/><path d="M333.954 91.93c-1.23 2.095-3.943 2.814-6.07 1.608-2.123-1.213-2.852-3.892-1.63-5.992 1.23-2.095 3.943-2.814 6.07-1.608 2.138 1.218 2.864 3.894 1.628 5.992m-35.454-20.213c-1.23 2.095-3.944 2.815-6.07 1.609-2.124-1.213-2.853-3.894-1.63-5.994 1.229-2.095 3.943-2.814 6.07-1.608 2.122 1.213 2.851 3.892 1.63 5.992M290.81 91.93c-1.222-2.1-.493-4.779 1.63-5.992 2.126-1.206 4.84-.487 6.07 1.608 1.221 2.1.493 4.78-1.63 5.992-2.138 1.206-4.85.492-6.07-1.607m35.456-20.212c-1.221-2.1-.493-4.779 1.63-5.992 2.127-1.206 4.841-.486 6.07 1.609 1.222 2.1.493 4.778-1.63 5.992-2.126 1.205-4.84.486-6.07-1.61m-13.885 32.51a4.443 4.443 0 0 1-4.104-2.707 4.344 4.344 0 0 1 .964-4.779 4.485 4.485 0 0 1 4.842-.95 4.385 4.385 0 0 1 2.74 4.053c-.006 2.419-1.991 4.378-4.442 4.383m0-40.424a4.465 4.465 0 0 1-3.143-1.283 4.35 4.35 0 0 1-1.299-3.102c0-2.422 1.989-4.384 4.442-4.384 2.452 0 4.441 1.962 4.441 4.384a4.35 4.35 0 0 1-1.3 3.1 4.465 4.465 0 0 1-3.14 1.283"/></g><g transform="translate(70 73)" fill="#333"><rect x="7" width="1" height="15" rx=".5"/><rect transform="rotate(90 7.5 7.5)" x="7" width="1" height="15" rx=".5"/></g><g fill="#333"><g transform="translate(265 73)"><rect x="7" width="1" height="15" rx=".5"/><rect transform="rotate(90 7.5 7.5)" x="7" width="1" height="15" rx=".5"/></g></g></g></svg>