<svg width="345" height="145" xmlns="http://www.w3.org/2000/svg"><g fill="none" fill-rule="evenodd"><path fill="#333" d="M0 0h345v145H0z"/><g fill-rule="nonzero"><path d="M55 72.38c0 5.628 5.457 10.881 14.06 13.842-1.718 8.71-.307 15.73 4.403 18.466 4.841 2.811 12.053.865 18.899-5.16 6.672 5.782 13.417 8.058 18.122 5.315 4.837-2.82 6.308-10.316 4.543-19.298C123.987 82.561 129 78.082 129 72.379c0-5.496-5.467-10.252-13.955-13.195 1.901-9.353.29-16.203-4.615-19.05-4.728-2.747-11.55-.354-18.322 5.58-7.044-6.297-13.799-8.22-18.698-5.364-4.724 2.754-6.072 9.902-4.349 18.772C60.747 62.041 55 66.905 55 72.38z" fill="#FFF"/><path d="M113.443 62.447a42.405 42.405 0 0 0-2.092-.685c.116-.491.224-.984.323-1.48 1.584-7.978.549-14.403-2.988-16.519-3.391-2.028-8.936.087-14.537 5.143-.552.5-1.092 1.014-1.619 1.541-.353-.35-.712-.694-1.077-1.031-5.87-5.408-11.753-7.687-15.286-5.565-3.388 2.034-4.39 8.076-2.966 15.636.143.748.303 1.493.481 2.233-.809.237-1.611.499-2.405.785C64.395 64.995 60 68.895 60 72.943c0 4.18 4.718 8.372 11.886 10.913.581.206 1.167.396 1.757.57-.191.798-.362 1.6-.51 2.408-1.36 7.429-.298 13.327 3.08 15.349 3.49 2.087 9.347-.058 15.05-5.23.463-.421.916-.853 1.357-1.297a43.29 43.29 0 0 0 1.757 1.663c5.524 4.932 10.98 6.923 14.356 4.895 3.487-2.093 4.62-8.43 3.148-16.139a39.426 39.426 0 0 0-.39-1.803c.406-.123.808-.253 1.21-.39C120.15 81.32 125 77.177 125 72.942c0-4.06-4.537-7.988-11.557-10.495z" fill="#53C1DE"/><path d="M112.332 80.459c-.365.119-.74.234-1.12.346-.845-2.64-1.984-5.447-3.378-8.347 1.33-2.831 2.426-5.601 3.246-8.224a42.55 42.55 0 0 1 1.983.617c6.172 2.1 9.937 5.204 9.937 7.593 0 2.547-4.066 5.854-10.668 8.015zm-2.74 5.362c.668 3.33.763 6.341.321 8.695-.398 2.115-1.196 3.526-2.183 4.09-2.103 1.202-6.598-.36-11.445-4.48a40.674 40.674 0 0 1-1.678-1.512c1.88-2.03 3.758-4.39 5.59-7.011 3.226-.283 6.272-.745 9.035-1.376.135.543.256 1.074.36 1.594zM81.89 98.398c-2.054.716-3.69.737-4.678.174-2.104-1.199-2.978-5.826-1.786-12.032.142-.734.304-1.464.487-2.188 2.732.597 5.756 1.027 8.989 1.286 1.845 2.565 3.778 4.922 5.725 6.987a33.81 33.81 0 0 1-1.27 1.155c-2.589 2.236-5.182 3.82-7.467 4.618zm-9.621-17.955c-3.252-1.098-5.939-2.525-7.78-4.082C62.836 74.96 62 73.57 62 72.444c0-2.398 3.621-5.459 9.66-7.538.758-.26 1.524-.498 2.296-.714.834 2.682 1.93 5.486 3.25 8.321-1.337 2.878-2.448 5.726-3.29 8.44a35.418 35.418 0 0 1-1.647-.51zm3.225-21.684c-1.253-6.328-.42-11.102 1.673-12.3 2.232-1.276 7.166.543 12.366 5.104.333.292.667.597 1.001.914-1.937 2.054-3.852 4.395-5.681 6.944-3.137.288-6.14.75-8.9 1.367-.17-.673-.324-1.35-.46-2.03zm28.77 7.017a89.309 89.309 0 0 0-2.028-3.295 63.5 63.5 0 0 1 6.082 1.05 59.574 59.574 0 0 1-2.135 5.673 97.744 97.744 0 0 0-1.919-3.428zM92.532 54.488a60.4 60.4 0 0 1 3.925 4.68 84.94 84.94 0 0 0-7.883-.002 62.253 62.253 0 0 1 3.958-4.678zM80.724 65.795a82.86 82.86 0 0 0-1.882 3.407 61.629 61.629 0 0 1-2.12-5.701 65.013 65.013 0 0 1 6.046-1.025 82.562 82.562 0 0 0-2.043 3.32h-.001zm2.105 16.82a61.365 61.365 0 0 1-6.146-.977 62.617 62.617 0 0 1 2.162-5.816 82.405 82.405 0 0 0 3.984 6.792zM92.61 90.6a63.45 63.45 0 0 1-4.012-4.744c1.277.049 2.579.074 3.902.074 1.36 0 2.704-.03 4.026-.089a60 60 0 0 1-3.915 4.758zm13.6-14.88a59.326 59.326 0 0 1 2.24 5.795c-2.055.456-4.131.806-6.222 1.048a98.187 98.187 0 0 0 2.048-3.353 89.077 89.077 0 0 0 1.934-3.49zm-4.403 2.084a92.097 92.097 0 0 1-3.199 5.1c-1.979.14-4.024.212-6.108.212a94.689 94.689 0 0 1-6.04-.189 79.622 79.622 0 0 1-6.104-10.416 79.52 79.52 0 0 1 2.837-5.311 78.952 78.952 0 0 1 3.234-5.086c4.047-.3 8.111-.3 12.158.003a84.61 84.61 0 0 1 3.214 5.068 91.897 91.897 0 0 1 2.875 5.286 84.446 84.446 0 0 1-2.866 5.333h-.001zm5.88-31.429c2.233 1.273 3.102 6.404 1.698 13.132-.092.439-.192.875-.3 1.31-2.766-.631-5.771-1.1-8.918-1.392-1.833-2.577-3.732-4.922-5.637-6.95.499-.476 1.01-.94 1.532-1.39 4.925-4.233 9.528-5.904 11.625-4.71z" fill="#FFF"/><path d="M93 67a6 6 0 1 1 0 12 6 6 0 0 1 0-12" fill="#53C1DE"/><path d="M161.487 75.347l2.151 6.284c1.165 3.397 2.204 6.114 2.34 6.114a.009.009 0 0 0 .005-.003c.15-.13 4.36-12.292 4.36-12.292h8.163l-9.847 28.533h-5.674s-6.055-17.391-6.03-17.458l-6.321 17.239h-5.617l-9.724-28.416 8.123.005s4.45 12.54 4.51 12.54l4.44-12.546h9.12zm-28.967-1.975l.894 2.611 9.723 28.416.458 1.338h8.428l.476-1.297 4.389-11.969 1.195 3.451c1.008 2.903 2.016 5.805 3.026 8.706l.463 1.328h8.505l.46-1.332 9.847-28.532.903-2.616h-12.36l-.46 1.333a1730.36 1730.36 0 0 1-2.555 7.322 145.6 145.6 0 0 1-.394-1.138l-2.152-6.283-.458-1.337H150.96l-.467 1.32-2.594 7.33c-.873-2.441-1.743-4.884-2.61-7.327l-.468-1.317h-1.403l-8.123-.006-2.775-.001zm154.68 1.865l-.018 7.478s-8.102-.026-12.22-.026c-1.37 0-2.3.003-2.344.01-.71.13-1.16 1.631-.96 2.29.099.332.842 1.42 1.646 2.42.8 1 2.119 2.635 2.923 3.634 2.065 2.563 2.348 3.067 2.539 4.54.31 2.389-.826 4.974-2.936 6.68-2.114 1.71-2.022 1.722-17.716 1.722h-.689c-9.545-.003-14.594-.082-15.328-.244-1.305-.294-3.386-1.982-8.883-7.226-1.977-1.884-3.8-3.534-3.893-3.535-.003 0-.003.002-.003.005l-.066 11-8.909-.039-.055-28.374h19.87c5.988.215 10.041 6.147 9.235 9.931-.183.858-.65 2.103-1.038 2.764-.797 1.357-2.825 3.099-4.47 3.847-.608.273-1.105.592-1.105.705 0 .422 2.001 2.38 2.75 2.692.641.266 2.505.325 10.725.325h2.632c8.263 0 7.847-.059 8.485-1.416.447-.945.107-1.51-3.037-5.032-3.984-3.94-3.566-5.829-3.594-7.223-.056-1.67 1.267-6.926 8.144-6.926l18.316-.002zm-53.375 13.108c3.814 0 4.588-.058 5.4-.409 2.74-1.185 2.887-4.683.258-6.236-.576-.341-1.315-.397-5.45-.42l-4.785-.025c.04.038-.015 6.804-.015 6.804s1.198.286 4.59.286h.002zm55.366-15.082h-20.306c-3.98 0-6.333 1.561-7.606 2.871-2.073 2.131-2.56 4.814-2.522 6.078.002.106 0 .214 0 .327-.019 2.054.285 4.382 4.134 8.204.76.851 2.033 2.28 2.515 2.99-1.052.128-3.718.128-6.52.128H256.256c-4.94 0-9.106-.016-9.96-.182a4.781 4.781 0 0 1-.47-.37c1.707-1.045 3.433-2.665 4.245-4.05.493-.842 1.037-2.281 1.266-3.348.506-2.375-.33-5.24-2.235-7.667-2.222-2.83-5.456-4.524-8.871-4.646l-.036-.001H218.3l.004 1.978.055 28.373.004 1.962 1.973.009 8.91.039 1.981.008.012-1.97.038-6.59c.182.17.37.35.564.533 6.013 5.735 8.03 7.325 9.818 7.727.492.108 1.304.289 15.766.292h.688c7.83 0 11.76 0 14.098-.223 2.677-.258 3.539-.862 4.83-1.907l.043-.035c2.65-2.144 4.051-5.387 3.652-8.465-.26-2-.794-2.832-2.959-5.52l-.644-.8-2.278-2.831a20.056 20.056 0 0 1-1.112-1.514l1.22-.001c4.07 0 12.133.027 12.213.028l1.989.005.004-1.976.019-7.479.004-1.977zM231.23 86.3l.01-1.618.005-1.442 2.776.015c1.596.008 3.997.023 4.465.154.597.36.93.918.895 1.496-.02.312-.17.885-.95 1.22-.433.19-1.125.247-4.607.247-1.105 0-1.957-.032-2.594-.072zM202.236 75.12l9.999 28.606-8.147.038-1.353-4.297-14.569-.116-1.285 4.301-8.067-.084 9.874-28.436 13.548-.012zm-6.552 4.195c-.021.082-1.277 3.508-2.538 6.935-1.27 3.454-2.545 6.91-2.563 6.936.034-.01 4.546-.02 7.438-.02 1.353 0 2.351.003 2.37.008-.051-.13-4.693-13.693-4.708-13.86zm7.963-6.17l-1.413.001-13.548.013-1.414.001-.461 1.33-9.873 28.435-.899 2.59 2.756.028 8.065.084 1.497.015.427-1.426.86-2.878 11.629.093.92 2.923.438 1.392 1.466-.007 8.148-.037 2.778-.012-.912-2.61-10-28.606-.464-1.33zm-10.207 18.05c.377-1.02.884-2.397 1.571-4.267l.594-1.615.539 1.579c.16.47.864 2.534 1.469 4.301-1.797 0-3.15 0-4.172.002zm12.166-50.218v7.058H191.39V69.62h-8.475V48.018l-16.594.046c-2 0-2.269 1.585-2.269 2.192 0 .745.49 1.49 3.175 4.87 1.742 2.197 3.343 4.389 3.554 4.867 1.152 2.636-.338 6.743-3.05 8.41-1.933 1.188-1.603 1.217-15.96 1.217h-17.787v-7.928h24.3l.717-.496c.484-.335.764-.797.87-1.43.15-.908.073-1.026-2.928-4.387-3.546-3.973-3.922-4.698-3.737-7.235.208-2.894 2.804-7.1 7.34-7.1l45.06-.067zM207.59 39l-1.988.003-45.06.067c-2.596 0-5.006 1.115-6.786 3.14-1.443 1.64-2.39 3.807-2.533 5.793-.242 3.335.53 4.54 4.233 8.687 1.075 1.204 2.096 2.348 2.437 2.834a.316.316 0 0 1-.013.04l-.018.012-.203.142H132v11.877h19.771c7.079 0 10.572-.006 12.631-.157 2.355-.17 3.106-.573 4.232-1.269l.14-.086c3.54-2.177 5.364-7.36 3.828-10.877-.474-1.075-3.475-4.872-3.816-5.301-.942-1.187-2.497-3.144-2.743-3.71a.649.649 0 0 1 .03-.132c.04-.01.12-.024.248-.024l14.608-.042v21.598h12.446V50.009h14.216V39zm21.111 2.207l9.972 28.68-8.133-.045-1.32-4.296-14.504-.065-1.295 4.14h-8.282l9.862-28.414h13.7zm-11.618 18.167l9.878-.012c.034 0-4.8-14.115-4.832-14.126-.036 0-5.157 14.138-5.046 14.138zm13.033-20.142h-16.53l-.46 1.33-9.864 28.415-.909 2.618h12.53l.434-1.388.86-2.745 11.573.052.893 2.905.427 1.39 1.461.007 8.134.045 2.803.015-.916-2.634-9.971-28.68-.465-1.33zm-10.274 18.165a968.32 968.32 0 0 1 2.236-6.246c.714 2.08 1.424 4.159 2.132 6.24l-4.369.006zm36.865-16.19c6.433 0 10.897.09 11.756.238 1.986.344 3.78 1.398 5.125 3.017 1.408 1.692 1.73 2.502 1.914 4.822.263 3.275-1.303 6.1-4.393 7.933-.901.536-1.826 1.056-2.057 1.16-.355.16-.307.314.327 1.054.409.476 1.12 1.155 1.576 1.508l.834.644 15.406.22.152 7.817H277.9c-7.306 0-9.643-.067-10.329-.296-1.025-.345-3.49-2.423-8.506-7.166l-3.578-3.386.037 10.848h-9.193V41.207h10.376zm-1.354 12.774h4.881c4.75 0 4.9-.015 5.577-.52 1.211-.902 1.64-1.833 1.512-3.262-.131-1.474-.703-2.241-2.134-2.858-.808-.35-1.584-.407-5.392-.407h-4.444v7.048zm1.354-14.748h-12.36v32.362h13.172l-.007-1.98-.023-6.224.21.198c6.2 5.866 8.03 7.199 9.236 7.605.926.311 2.478.401 10.967.401h11.47l-.039-2.012-.151-7.818-.037-1.908-1.919-.027-14.743-.21-.308-.24a6.698 6.698 0 0 1-.345-.29l.3-.178c3.723-2.21 5.675-5.776 5.353-9.785-.215-2.704-.7-3.923-2.363-5.922-1.635-1.967-3.877-3.282-6.315-3.703-1.357-.234-8.162-.269-12.098-.269zm.63 9.676h2.46c3.481 0 4.17.058 4.596.242.807.347.89.516.951 1.223.065.703-.023.986-.725 1.508l-.055.04c-.463.086-2.18.086-4.33.086h-2.896v-3.1.001z" fill="#FFC500"/></g></g></svg>