<svg xmlns="http://www.w3.org/2000/svg" xmlns:xlink="http://www.w3.org/1999/xlink" width="972.627" height="331.561"><symbol id="a" viewBox="-486.326 -165.78 972.652 331.561"><path fill="#333" d="M-284.735 51.4h-24.311l-35.101-91.097h21.99l5.736 15.431h33.166l-6.004 17.075h-21.836l14.205 39.197 25.268-71.703h21.988zM84.567-39.697V51.4h19.531v-74.025h38.514v-17.072H84.567zM197.132-39.697V51.4h19.531v-74.025h38.516v-17.072h-58.047zM-23.599 35.074c16.152 0 29.293-13.139 29.293-29.292 0-16.151-13.141-29.292-29.293-29.292S-52.89-10.369-52.89 5.782c0 16.154 13.139 29.292 29.291 29.292m0 17.827c-26.023 0-47.119-21.096-47.119-47.119s21.096-47.12 47.119-47.12S23.52-20.241 23.52 5.782 2.425 52.901-23.599 52.901zM344.964 35.074c16.154 0 29.295-13.139 29.295-29.292 0-16.151-13.141-29.292-29.295-29.292-16.152 0-29.291 13.141-29.291 29.292 0 16.154 13.139 29.292 29.291 29.292m0 17.827c-26.021 0-47.119-21.096-47.119-47.119s21.098-47.12 47.119-47.12c26.023 0 47.121 21.097 47.121 47.12s-21.098 47.119-47.121 47.119zM-150.335 51.4H-192.812v-91.098h19.395v31.35h23.082c16.191 0 29.316 13.685 29.316 29.874 0 16.192-13.125 29.874-29.316 29.874zm0-41.919h-23.082v24.091h23.082c6.336 0 11.488-5.711 11.488-12.046s-5.152-12.045-11.488-12.045z"/><path fill="#333" d="M-209.558-67.345a5.002 5.002 0 0 1-4.088-2.118s-4.375-4.991-6.734-7.353c-9.979-9.979-21.598-17.812-34.533-23.284-13.387-5.663-27.611-8.534-42.281-8.534-14.672 0-28.896 2.871-42.281 8.534-12.936 5.472-24.555 13.305-34.533 23.284-9.98 9.981-17.814 21.599-23.285 34.534-5.661 13.387-8.533 27.613-8.533 42.282s2.872 28.895 8.533 42.282c5.471 12.935 13.305 24.553 23.285 34.532 9.979 9.98 21.598 17.813 34.533 23.285 13.385 5.663 27.609 8.534 42.281 8.534 14.67 0 28.895-2.871 42.281-8.534a108.017 108.017 0 0 0 26.041-15.639 12.31 12.31 0 0 1-.658-3.963c0-6.769 5.488-12.257 12.256-12.257 6.77 0 12.258 5.488 12.258 12.257 0 6.77-5.488 12.257-12.258 12.257a12.2 12.2 0 0 1-4.742-.953c-20.467 16.782-46.645 26.858-75.178 26.858-65.535 0-118.661-53.125-118.661-118.66s53.126-118.661 118.661-118.661c36.658 0 69.42 16.636 91.184 42.758a5.015 5.015 0 0 1-3.548 8.559z"/><path fill="none" d="M486.325-165.78h-972.651v331.56h972.651z"/></symbol><use xlink:href="#a" width="972.652" height="331.561" x="-486.326" y="-165.78" transform="matrix(1 0 0 -1 486.313 165.78)" overflow="visible"/></svg>