<svg width="212" height="239" xmlns="http://www.w3.org/2000/svg"><g fill="#333" fill-rule="nonzero"><path d="M131.252 68.16h-24.311L71.84 159.257h21.99l5.736-15.431h33.166l-6.004-17.075h-21.836l14.205-39.197 25.268 71.703h21.988z"/><path d="M206.429 186.905c-1.626 0-3.15.79-4.088 2.118 0 0-4.375 4.991-6.734 7.353-9.979 9.979-21.598 17.812-34.533 23.284-13.387 5.663-27.611 8.534-42.281 8.534-14.672 0-28.896-2.871-42.281-8.534-12.936-5.472-24.555-13.305-34.533-23.284-9.98-9.981-17.814-21.599-23.285-34.534-5.661-13.387-8.533-27.613-8.533-42.282 0-14.669 2.872-28.895 8.533-42.282 5.471-12.935 13.305-24.553 23.285-34.532 9.979-9.98 21.598-17.813 34.533-23.285 13.385-5.663 27.609-8.534 42.281-8.534 14.67 0 28.895 2.871 42.281 8.534A108.017 108.017 0 0 1 187.115 35.1a12.31 12.31 0 0 0-.658 3.963c0 6.769 5.488 12.257 12.256 12.257 6.77 0 12.258-5.488 12.258-12.257 0-6.77-5.488-12.257-12.258-12.257a12.2 12.2 0 0 0-4.742.953C173.504 10.977 147.326.901 118.793.901 53.258.901.132 54.026.132 119.561s53.126 118.661 118.661 118.661c36.658 0 69.42-16.636 91.184-42.758a5.015 5.015 0 0 0-3.548-8.559z"/></g></svg>