<svg width="2500" height="974" xmlns="http://www.w3.org/2000/svg"><g fill-rule="nonzero" fill="none"><path d="M1714.55 86.411l-.556-5.356-8.677.742.552 5.351 8.682-.737zm58.346 140.322l.185 2.954 6.094-.551c-.186-1.846.552-4.8 1.846-8.491l-.557-5.357c-2.583.186-5.171 4.063-7.568 11.445zm-227.662 176.7c-.366-4.986-15.879-24.37-46.528-58.53-.552-6.275 9.97-15.694 31.572-28.062l61.67-53.73c13.848-17.545 21.973-45.977 24.375-85.489l-.742-9.048c-2.397-27.324-22.153-49.297-59.634-66.098-22.158-14.956-62.04-23.267-119.648-24.742-47.637 4.063-109.859 21.045-186.485 51.143-21.05 15.142-45.048 30.283-72.006 45.42l.366 4.619c1.665-.186 4.248-1.108 7.202-3.14 3.14-.37 4.985 1.109 5.17 4.063l4.615-2.402 2.217-.186.185 2.031c.186 2.403-16.435 15.513-50.039 38.96l2.588 4.8-2.216.186-5.542-2.032c.185 1.66-2.212 2.769-6.832 3.14l.186 2.031 5.356 6.646c-1.66.185-4.248-.552-7.753-1.846-7.76.737-15.328 4.8-22.896 12.554l3.14-13.662c11.26-48.56 19.013-91.582 23.076-128.877l-.552-2.403c-7.754-4.985-15.327-12.002-22.344-20.864.186-5.723.186-9.043 0-9.785l-.551-2.031-2.217.556c-24.37 36.558-71.27 98.965-140.88 187.222-52.987 62.778-80.316 97.676-81.977 104.692-21.601 22.34-31.943 35.82-30.835 40.435-5.722 3.691-8.125 7.383-7.202 11.445-1.66.371-2.768-.18-3.14-1.845-9.228 14.956-22.895 24.555-41.171 28.803l-19.204 4.434c-2.583.552-3.877 2.397-3.692 5.537l.552 2.402 7.202-1.665.557 2.031-16.25 6.28-28.804 6.645-15.142.923c-2.216 2.217 12.002-.18 6.465 1.109l-18.833 4.433c-11.45 2.583-17.724 1.66-18.833-2.954l-2.217.552c.372 2.031.552 3.51.186 4.8l-1.108-4.615-15.142 3.506c-1.108-7.012-21.602-32.495-61.299-76.435-.737-8.496 13.291-20.87 41.914-36.93l80.87-71.088c18.095-23.262 28.803-60.561 32.314-111.89l-1.109-12.002c-3.14-36.186-29.36-65.36-78.657-87.885-29.175-19.756-81.611-30.283-157.31-31.944-62.778 5.357-144.76 27.696-245.57 66.656-27.696 20.122-59.268 40.063-94.717 59.819l.551 6.28c2.403-.186 5.537-1.475 9.414-3.692 4.063-.371 6.28 1.474 6.65 5.17l6.275-3.51 3.14-.186.185 2.955c.186 2.954-21.787 20.127-66.284 51.513l3.506 5.542-3.135.186-6.836-2.403c.186 1.846-2.954 3.14-9.414 3.692l.367 3.325 7.387 8.125c-2.397.186-5.722-.557-9.97-2.031-14.4 1.294-28.433 11.63-42.28 31.206l3.505 5.537c12.002-11.08 19.019-16.616 21.05-16.802l.737 9.048c-2.031.186-5.17 1.475-9.414 3.691l7.569 11.45a249.99 249.99 0 0 1 48.193-40.439c8.677 2.217 13.29 4.986 13.476 7.94l6.646-.552c47.637-35.269 94.722-60.747 141.435-76.44l.552 6.274c-8.677 12.925-14.585 19.575-17.724 19.941.37 4.434 1.845 8.31 4.614 11.636.742 7.94-20.493 61.484-63.516 160.45C156.944 607.09 74.961 777.323 8.311 887.372c.18 2.212 1.474 5.166 3.877 8.862 16.43-3.877 26.772-7.94 31.2-11.82l3.511-.367.552 6.28 6.094-.557 6.28-3.506c.185 1.845 2.216 2.768 6.46 2.397l.556 6.28c.552 6.093-2.954 15.322-10.342 28.066-6.645 7.568-13.848 23.447-21.416 47.637l.18 2.954 6.094-.557c26.592-29.727 46.714-58.901 60.562-87.334 77.549-22.71 136.636-45.049 177.622-67.021 41.177-3.511 72.563-14.405 93.984-32.315l-.37-3.32-15.509 4.614-3.51.371-.371-3.325c30.283-4.614 51.147-11.265 62.778-20.493 58.901-45.425 103.398-77.55 133.496-96.568 61.85-45.42 102.105-89.736 120.38-132.754a388.003 388.003 0 0 0 10.343-2.402c8.676-.366 13.476-.552 14.77-.923-.37-1.66.371-2.583 2.031-2.954 13.848-1.474 7.203.923 16.065-1.108l23.262-5.352c-1.475.366-2.032 1.109-1.66 2.583l3.505-2.217c-.737 0-1.289-.18-1.845-.366l3.877-.923-1.846 1.109c2.588.366 5.356.18 8.496-.557l1.66 6.831-105.796 168.208-23.452 29.356-11.445 38.403 2.217-.552 11.445-4.8-3.692 14.956 1.109 4.43 3.135 3.876c-1.475.371-2.027 1.294-1.66 2.954l.556 2.403 4.8-1.109c7.017-6.094 9.97-11.63 8.862-16.616 7.569 1.289 12.554 1.846 15.142 1.108l.552 2.398c-4.615 1.108-7.017 4.8-7.388 11.079l.557 2.402 2.583-.556c38.408-41.914 132.573-185.376 208.09-282.681-2.402-10.523 36.924-25.112 118.164-43.945l2.588-.552c2.954 12.74-3.325 43.574-18.833 92.505-9.97 29.54-14.77 45.79-14.033 48.374-12.925 39.326-19.018 60.561-18.281 63.887l-28.804 94.345c-18.647 48.38-32.861 99.155-42.832 152.7 1.66-.37 4.243-.185 7.94.738l4.057-3.511c.371 1.665 1.48 2.217 3.14 1.846l-1.66-6.831 12.553-.367c3.692-.922 6.831-5.542 9.42-14.033-.557-12.74 2.03-19.57 7.753-21.05 7.754-30.278 12.554-45.42 14.219-45.976 7.197-30.093 12.554-47.266 16.06-51.514 10.898-39.14 18.833-59.267 24.003-60.561l1.109 4.804-7.94 20.493c-13.847 61.485-27.88 110.044-42.094 145.68l4.062 17.724 2.583-.552c34.341-73.857 83.823-220.088 148.262-438.701 1.85-19.204 11.079-34.16 27.515-44.683l-3.697-3.877-.551-2.03c7.387-1.661 12.553-4.615 15.507-8.678-.366-1.665-6.83-4.062-19.384-7.387l32.128-137.74c7.012-6.279 11.075-9.6 12.369-9.6l.556 7.017c-1.665.181-4.248 1.104-7.202 3.135l6.094 8.682c11.074-12.002 23.076-22.344 36.186-31.02 6.646 1.845 9.971 4.062 10.342 6.279l4.8-.372c36.558-26.772 72.378-45.976 107.642-57.607l.37 4.614c-6.46 9.785-10.893 14.77-13.295 14.956.37 3.326 1.294 6.28 2.954 8.863.557 6.093-15.322 46.714-47.817 122.046-74.229 174.482-136.45 303.544-187.041 387.373.185 1.66 1.293 3.877 3.325 6.83 12.368-2.953 20.307-6.093 23.447-9.047l2.217-.186.37 4.62 5.167-.372 4.619-2.402c.18 1.294 1.846 1.85 4.985 1.665l.367 4.985c.37 4.429-2.212 11.446-7.94 21.045-5.351 5.728-10.893 17.73-16.802 36.006l.186 2.402 4.8-.37c20.127-22.525 35.449-44.683 45.976-66.47 58.897-17.354 103.765-34.156 134.785-50.777 31.573-2.768 55.391-10.893 71.641-24.555l-.185-2.398-12.002 3.506-2.583.186-.186-2.403c22.896-3.32 38.96-8.491 47.637-15.322 44.682-34.346 78.471-58.901 101.367-73.3 71.27-51.886 104.502-101.74 100.44-149.561zm-12.182 3.14l1.66 18.647c-2.217 4.619-4.614 7.016-6.831 7.202l-2.769-31.758c5.166 1.846 7.754 3.691 7.94 5.908zM134.97 256.278l-3.14.181-.552-5.723 12.74-1.108.185 2.954c-2.031.186-5.17 1.294-9.233 3.696zM72.749 878.691c-7.388-3.32-14.033-4.614-19.756-4.062l-.742-9.048c-.366-3.506 1.665-5.908 6.094-6.831 4.062-.366 6.465 2.588 6.83 8.496 10.714-13.11 16.622-19.756 17.73-19.941l6.831 2.768c-2.216 18.467-7.94 27.881-16.987 28.618zM737.632 183.16c-3.14.371-9.42-9.414-18.467-28.804l-.552-5.722c5.908-.552 12.002 9.048 18.462 28.804l.557 5.722zm-8.867-68.867l-2.583 6.094-90.288-37.666c60.19 2.031 91.21 12.553 92.87 31.572zM347.49 441.655l-12.739 1.109-.557-5.728 12.74-1.103.556 5.722zm-10.342-196.64l3.14-.186.737 9.048c-2.954.185-6.83 4.614-11.63 13.11l-.557-6.279c5.727-6.831 8.682-12.002 8.31-15.693zm-26.772 63.144l1.108 12.002-3.14.186-1.108-12.002 3.14-.186zm-14.033 22.53l6.094-.557c-.552 9.97-3.32 15.327-8.306 15.693l-3.14.186c3.877-6.646 5.723-11.817 5.352-15.323zm-10.523 31.386l3.506-.37.186 2.953-5.723 9.605-6.094.551-.185-2.954c6.094-.551 8.862-3.691 8.31-9.785zm-10.341 28.252l-1.846 15.137-3.14.185-1.289-14.956 6.275-.366zm-103.58 294.497c-4.062 20.679-8.496 31.201-13.11 31.572l-.185-2.954c-1.109-10.156 3.325-19.755 13.295-28.618zm-19.018 41.172l.185 2.954c.367 4.063-1.48 6.465-5.542 6.646l-.18-2.954c-.371-3.506 1.474-5.723 5.537-6.646zm-5.537 85.488l9.6-.922.366 3.325c-2.398.18-5.538 1.474-9.414 3.691l-6.094.552c-.371-3.135 1.66-5.537 5.537-6.646h.005zm273.261-84.38c-53.916 26.587-85.673 44.683-95.087 54.097-58.345 20.313-87.334 32.866-86.783 37.852-51.88 20.498-86.04 35.64-102.47 45.053-3.877.372-9.42-1.108-16.802-4.433-.923-10.523 3.877-19.014 14.028-25.845 9.048-.742 17.725.552 26.035 4.058 9.605-4.986 26.407-10.523 50.225-16.43l-.557-6.28-19.199 1.665c2.398-3.325 20.86-12.002 55.571-26.035l9.605-.923.185 2.954c-16.435 1.475-25.483 6.28-27.514 14.956.37 3.877 2.588 5.537 6.65 5.17 12.368-7.758 18.462-12.372 18.277-13.666 23.452-4.429 88.256-38.403 194.423-101.734l.56 5.723c.183 2.769-8.865 10.523-27.147 23.818zM257.754 780.65c15.513-1.294 28.804-7.568 39.883-18.462 4.428-.37 6.83 1.29 7.016 5.167-7.573.742-22.158 7.016-43.388 19.204l-3.14.185-.371-6.094zm262.74-201.811l-81.427 64.443c-60.561 39.698-93.056 59.634-97.67 60.005-96.382 52.993-156.387 80.503-179.654 82.534l-3.506.367c2.954-10.89 45.786-98.594 128.877-263.663 36.558-3.14 94.165-20.122 172.637-51.142l19.2-1.665c39.696-3.506 69.423 4.248 88.998 22.715l1.104 11.997c-14.77 42.47-31.016 67.212-48.56 74.409zm-159.156-89.546l13.11-1.108.18 2.954-13.105 1.108-.185-2.954zm184.082-31.206l9.604-.923c8.863 4.248 13.477 7.94 13.848 11.265l.18 2.954c-8.49.737-16.43-3.692-23.632-13.296zm26.035-148.262c-8.491 10.152-31.758 27.51-69.795 51.88-12.554 1.108-59.267 19.204-140.137 54.653a25.586 25.586 0 0 0-12.924-2.211l-.557-5.728c-.923-11.63 4.248-26.216 15.693-43.94 6.28-33.238 13.11-52.256 20.684-56.87l67.393-151.587c-.743-9.42 13.662-16.622 43.203-21.607l9.6-.923.741 8.682c28.985-4.434 47.08-7.017 54.097-7.573 53.545-4.615 81.426 6.279 83.643 32.314l6.093-.557-1.293-15.322 6.645-.556c15.693 8.681 24.19 19.204 25.298 31.572.737 8.496-3.877 19.018-13.667 31.577-4.058.366-6.46-2.588-6.831-8.496l-6.646.556-1.474 18.462c-27.144 40.62-46.9 61.485-59.087 62.593-11.08 15.327-17.91 22.896-20.679 23.081zm41.357 106.167c-5.537-3.696-9.97-5.356-13.29-5.17l-.743-9.049 6.094-.551 13.481 7.94c.552 4.242-1.293 6.46-5.542 6.83zm42.837 50.772c5.909 2.402 9.42 4.985 10.157 7.387l-2.954.738.185.185c-.557 0-1.294.186-1.85.371l-4.43 3.506-1.108-12.187zm4.063 25.483l-.552-2.402 7.754-1.846.552 2.402-7.754 1.846zm18.647 20.864c7.94-1.294 11.817-1.845 26.587-5.17l.557 2.402-28.066 6.46c.37-1.294.737-2.583.922-3.692zm27.33 11.631c-11.817 1.109-9.234-.37-28.067 3.877l-.557-2.397 23.453-7.574 11.264-2.583 1.104 4.43c-4.986 1.108-1.29 1.108-7.198 4.247zm24.926-5.908c-2.773.737-4.985-.552-6.28-3.691l7.203-1.665c3.135-.738 5.166.556 5.908 3.696l-6.83 1.66zm67.573-72.749l-.551-2.397 11.63-2.769 1.109 4.429-12.188.737zm72.198 442.764c.737-3.326.923-5.723.552-7.388l2.587-.552c3.135-.737 4.98.371 5.723 3.325l.552 2.398-9.414 2.217zm50.59-423.745l-5.17-.923c-8.31 3.325-15.327 5.722-21.05 7.016l-4.8 1.109c-2.769.737-4.985-.371-6.094-3.326l33.79-7.753 11.078-5.171 3.692 4.248c-5.357 1.108-9.234 2.768-11.445 4.8zm26.03-8.311l-.55-2.397c1.66-.372 3.876-1.66 6.278-4.063l24-5.537.556 2.397c-12.74 3.14-22.895 6.28-30.283 9.6zm3.697-48.56c-1.665.372-3.877 1.851-6.65 4.063-.366-1.66-3.692-1.66-9.971-.18-1.103-4.62 16.621-11.08 53.364-19.576l5.166-1.108 1.109 4.433c-25.85 7.569-40.25 11.817-43.018 12.368zm64.624-69.79c-2.588 29.356-12.925 45.977-31.206 50.22l-.552-2.397-16.25 6.274-7.202 1.665c-3.691.923-7.016.737-9.97-.185l-1.475-6.465c-.557-2.398 22.895-34.898 70.532-97.305l5.537.928c2.031 8.491-1.108 24.184-9.414 47.265zm114.287-97.86l-2.212.185-.37-4.615 9.599-.923.185 2.398c-1.66.371-4.062 1.294-7.202 2.954zm-47.08 472.86c-5.542-2.588-10.527-3.691-14.77-3.325l-.557-7.016c-.186-2.398 1.294-4.063 4.434-4.986 3.14-.366 4.985 1.846 5.351 6.65 7.94-10.156 12.373-15.327 13.296-15.327l4.985 2.032c-1.845 14.033-6.093 21.416-12.739 21.972zm504.8-528.066c-2.402.186-7.017-7.202-14.219-22.158l-.366-4.614c4.614-.372 9.414 6.83 14.214 21.601l.371 5.171zm-6.646-52.808l-2.216 4.8-68.316-28.618c45.606 1.48 69.239 9.419 70.532 23.818zM1290.991 381.28l-9.604.923-.366-4.619 9.6-.737.37 4.433zm-7.94-149.375l2.584-.185.552 7.016c-2.398.186-5.352 3.511-8.863 9.971l-.366-4.614c4.248-5.357 6.274-9.42 6.094-12.188zm-20.126 48.008l.737 9.048-2.583.186-.742-9.048 2.588-.186zm-10.894 17.173l4.8-.371c-.552 7.754-2.583 11.816-6.094 12.187l-2.583.181c2.769-5.166 4.063-9.228 3.877-11.997zm-7.754 23.633l2.217-.186.18 2.398-4.242 7.387-4.805.371-.18-2.402c4.985-.371 7.197-2.954 6.83-7.568zm-7.754 21.416l-1.665 11.816-2.216.186-.923-11.631 4.804-.371zm-78.842 223.965c-3.14 15.512-6.46 23.452-9.971 23.818l-.186-2.031c-.551-7.754 2.769-15.137 10.157-21.787zm-14.585 31.206l.18 2.03c.371 3.321-1.103 5.172-4.428 5.352l-.186-2.397c-.185-2.402 1.294-4.062 4.434-4.985zm-4.063 64.99l7.383-.552.186 2.398c-1.66.185-4.248 1.108-7.203 2.773l-4.8.366c-.185-2.583 1.295-4.243 4.434-4.985zm207.349-64.067c-40.62 20.126-64.81 33.789-72.378 40.805-44.316 15.508-66.284 25.113-65.918 28.99-39.326 15.693-65.176 26.953-77.363 34.155-2.954.185-7.202-.923-12.74-3.506-.737-7.94 2.955-14.404 10.708-19.204 7.017-.552 13.663.37 19.756 2.954 7.388-3.692 20.127-7.754 38.223-12.368l-.371-4.62-15.142 1.109c1.85-2.583 16.065-9.233 42.47-19.941l7.384-.552.185 2.031c-12.553 1.108-19.57 4.8-21.05 11.445.186 2.954 2.032 4.434 5.171 4.063 9.234-6.094 13.662-9.6 13.662-10.708 17.725-3.14 66.841-28.99 147.53-77.363l.366 4.614c.186 2.031-6.646 7.94-20.493 18.096zm-123.706 40.62c11.997-1.109 22.153-5.723 30.65-13.848 3.134-.371 4.985 1.108 5.165 4.063-5.537.551-16.43 5.17-32.866 14.033l-2.583.185-.366-4.433zm199.775-153.433l-61.484 49.482c-45.977 30.093-70.899 45.235-74.78 45.606-73.116 40.249-118.536 61.113-136.446 62.593l-2.583.185c2.212-8.31 34.898-74.966 98.042-200.151 27.51-2.398 71.084-15.508 130.908-39.14l14.956-1.295c30.093-2.583 52.623 3.326 67.393 17.54l.737 9.047c-11.264 31.758-23.447 50.406-36.743 56.133zm-120.752-67.95l9.6-.922.185 2.402-9.6.923-.185-2.402zm139.77-23.818l7.388-.551c6.831 3.32 10.337 6.279 10.523 8.676l.185 2.032c-6.464.551-12.558-2.769-18.095-10.157zm19.385-112.44c-6.46 7.753-23.999 21.044-52.617 39.51-9.604.924-45.053 14.586-106.352 41.173-2.954-1.109-6.28-1.475-9.79-1.29l-.366-4.619c-.738-8.862 3.14-19.941 11.63-33.418 4.8-25.478 10.157-39.697 15.694-43.022l51.513-115.215c-.551-6.83 10.342-12.368 32.5-16.616l7.383-.552.557 7.017c21.787-3.51 35.45-5.542 40.986-6.094 40.62-3.51 61.856 4.614 63.516 24.556l4.8-.371-.923-11.08 4.804-.366c11.817 6.46 18.091 14.22 18.833 23.448.552 6.65-2.773 14.77-9.79 24.189-3.134.366-4.98-1.846-5.351-6.645l-4.8.366-1.48 13.847c-20.493 31.206-35.449 47.27-44.868 48.008-8.305 11.265-13.476 16.988-15.879 17.173zm21.607 76.806l-.557-7.017 4.8-.366 10.342 6.274c.185 2.954-1.294 4.62-4.434 4.986-4.428-2.769-7.754-4.063-10.151-3.877zM622.969 806.499l-4.8 1.108-4.063 3.506c.738 2.954 2.583 4.063 5.723 3.325 3.14-.737 4.434-2.583 3.696-5.537l-.556-2.402zm-18.277-36.372l.552 2.397c3.14-.737 4.429-2.583 3.692-5.537l-.552-2.402c-2.954.742-4.248 2.588-3.692 5.542zm129.98-309.273l5.543-1.289-1.109-4.8-5.537 1.29 1.104 4.8zm1675.411 140.699c-56.133 12.553-63.15 10.337-74.966 11.26l.371 4.619 5.171-.371 2.769-.186-.738-.552 6.09-2.402c55.575-6.094 62.04-3.877 61.484-10.156l-.181-2.212zm-302.256 40.063l.371 4.62h.738l-.367-4.62h-.742zm-34.712-121.675l-4.985-1.66c-4.063 10.894-6.094 17.354-5.908 19.2l.185 2.03c3.877-.185 7.388-6.83 10.708-19.57zm348.413 80.689l.371 4.614 8.12 1.475-.366-4.615-8.125-1.474zm-382.016 46.709l-12.554-1.475-2.217 4.8.186 2.402 74.775-6.279-.366-4.614-59.824 5.166zm-33.975-163.77l-.18-2.402-2.588.186-4.615 2.954 2.583 4.428c3.511-.366 5.171-2.03 4.8-5.166zm451.44 83.086l3.511-.37c2.032-.186 2.954-1.847 2.769-4.8l-2.031-4.434c-12.74 1.108-18.648 1.665-28.99 7.387l-.185-2.397-15.322 1.475c-.372-4.615-1.66-7.017-3.692-6.831l-7.94.737c-9.233.737-13.666.371-18.28 3.877-.186-1.66-.738-2.398-1.66-2.398l-8.863.738-5.17 2.954c-.186-1.66-.738-2.403-1.666-2.403l-3.135 2.774-.185-2.402-12.373-.923-2.954.185.37 4.614 6.28 1.66 5.908-.366c2.031 1.294 4.243 1.66 6.831 1.475l5.171-2.583.18 2.031c-28.984 7.202-28.803 5.908-48.744 9.234-2.212-1.48-3.877-2.217-4.986-2.032l-.366.367c-2.217-.186-3.51-1.66-3.691-4.063l10.337-1.289c.737 0 1.294.737 7.016 1.846 8.31-4.063 8.677-5.728 13.11-6.094l-.37-4.62c-28.433 5.543-16.988 1.851-52.623 4.986l-1.66.186-.37-4.614c45.79-5.538 30.468-2.403 46.161-6.832.186 1.66.738 2.398 1.66 2.398a10.732 10.732 0 0 1 6.28-3.135l3.14-.185c16.059-1.294 21.415 1.845 53.173-7.017l.186 2.031 5.17-2.588 4.8-.366c-.37-4.619 6.646-5.356 9.048-5.542l-.37-4.985c-55.763 11.264-70.348 8.125-85.855 12.558l-.186-2.03c-14.585 2.582-15.141 1.474-18.833 1.66-1.108.185-2.768 1.108-4.619 2.953-.18-1.66-.737-2.402-1.846-2.402-.551 0-.737.186-.923.186l-47.265 7.754c-.186-1.29-.738-2.027-1.846-1.846-24.556 5.17-17.91 6.094-50.776 9.048-1.48.185-3.506.923-6.094 2.588-.186-1.294-.923-2.032-2.583-1.851l-20.127 1.665-13.477 3.32c-.185-1.289-.922-2.026-2.587-1.845-7.569 2.03-14.214 3.325-19.57 3.696h-.372c-3.32.366 1.665-.923-.923-2.031l-4.062 2.397c-5.908.557-2.769-.366-23.076-.185-35.635 4.433-31.758 4.985-35.635 5.17l-13.296-.922c.186 1.294-.552 2.216-2.031 2.216-15.142-2.03-22.896-4.433-23.081-7.202 2.03-14.4 5.542-21.787 10.527-22.158l2.583-.18-2.217 4.8 2.588-.186c4.8-2.583 7.017-4.986 6.831-7.202l-.37-4.986-4.8.371-.372-4.614c-.366-3.51.186-6.65 1.48-9.233l10.893-17.54.371 4.615 5.166-.371-.366-4.615-2.954-4.248c3.877-3.32 6.831-5.17 9.229-5.351l-.181-2.402-7.017.556-.556-7.016c14.033-29.175 20.678-46.163 20.312-50.962l4.985 2.03c3.14-.185 4.615-2.03 4.43-5.356l-4.8.372-.186-2.032a17.642 17.642 0 0 1 1.846-9.785c7.573-7.94 11.079-15.879 10.341-24.19 1.48-.185 2.217.557 2.403 2.217 6.46-3.69 11.445-13.476 15.136-29.726 11.45-20.679 27.696-62.036 48.931-123.892 40.62-109.306 38.96-120.937 44.683-146.787l-4.8.366c.366 3.326-.371 6.465-1.846 9.42-3.325-1.295-5.908-2.032-7.754-1.846l-.185-2.032c-.742-9.419 3.14-20.678 12.002-33.974l2.212-.186 4.062 15.88 4.8-.367c-.18-1.108 1.108-7.388 3.696-19.019-.185-2.402-2.031-3.877-5.727-4.062l-4.615 2.954c-.366-3.325-.185-12.002.371-25.85l-2.402.186c-4.062-4.063-6.094-7.388-6.28-10.156l-26.4 2.583c-.186-1.846-1.109-4.615-2.955-8.12-.185-2.403 5.723-4.805 17.91-7.203l5.357 2.032 4.985-2.954c.181 1.66 1.104 2.397 2.95 2.216l4.985-2.954c.185 1.66 1.108 2.398 2.959 2.212l2.397-.18-.37-5.357c-3.692.371-13.477.371-28.985-.185l-4.985 3.325-.186-2.954c-123.892 10.151-194.238 15.879-211.04 17.539-2.217.185-10.894 0-26.22-.371.185 2.03-1.66 3.14-5.352 3.51l-5.357-2.402-18.095 4.62c-4.249.365-11.446.18-21.416-.924-2.769 2.212-6.094 3.506-10.157 3.877-2.217.18 26.402-1.48 52.989-3.325-2.769 2.217-7.012 3.506-12.92 4.063-4.063.37-7.574-.186-10.528-1.846-4.062 1.846-17.168 4.8-39.14 9.228l-5.357-2.026-86.41 13.291c-3.326-1.66-7.203-2.217-11.632-1.846-4.619.371-12.373 2.032-23.08 4.986l-41.73 17.353 3.14 5.171c2.032-.186 4.986-1.289 8.492-3.32l14.775 1.289-1.85 13.847c-13.663 6.094-21.602 15.142-23.82 26.592-20.492 9.043-30.648 15.508-30.648 19.385l.185 2.402 3.14-.185 5.537-2.954 6.465 7.754.923 10.708c.366 3.325-34.16 75.888-103.213 217.69-59.825 136.63-91.211 211.411-94.165 224.888-20.494 5.722-32.315 14.033-35.82 25.112.37 3.506 6.46 5.908 18.276 6.831l.556 5.352-5.356 8.862.923 10.713c.556 5.537 15.512 9.785 44.868 12.74-.186-1.847.742-2.955 2.768-3.14.557 6.645-1.289 19.57-5.537 38.774l3.14-.186c12.183-16.616 17.91-28.066 17.353-34.34l2.588-.186c2.954-.186 6.094 3.14 9.786 10.337-3.692 1.48-16.617 30.835-38.775 88.262l3.14 5.166 3.14-.181c27.138-68.687 44.125-106.724 51.142-113.926 35.635-3.14 97.305-9.414 184.824-18.833l5.537-3.32c.186 1.846 1.294 2.768 3.326 2.583l5.722-.552 5.542-3.325c.18 1.846 1.29 2.768 3.32 2.583l66.285-5.723c17.544-1.474 25.85-6.83 25.112-15.879-.186-2.397 10.156-5.17 31.02-8.125 2.032-.185 4.986.371 9.048 1.665-.185-1.665 10.337-3.325 31.387-5.17.557-11.08 4.063-16.988 10.342-17.54l-.557-5.356c-5.908.552-12.554 2.031-20.307 4.614-13.848-.737-22.71-1.845-26.407-3.14-3.691 2.032-6.46 3.14-8.49 3.326l-46.163 1.48-5.537 2.953c-.186-1.665-1.294-2.402-3.325-2.216l-2.583.185-5.909 2.954c-.185-1.665-4.985-2.954-14.59-4.248l-5.903 3.506-11.45.923-.185-2.954c59.453-6.46 88.813-14.585 88.07-24.185 3.883-.37 5.914 1.475 6.28 5.357l17.359-4.434-.557-5.356-142.354 3.877c.181 1.85-.742 2.954-2.768 3.14l-17.359-1.475c-4.433.366-8.125 1.66-11.079 3.877l-6.46-2.403c-17.91 1.48-31.206 3.697-40.068 6.465-12.187-.923-25.664-.742-40.62.552l-31.943 2.768-14.771-1.66c-.737-9.414 17.54-55.761 55.205-138.847 10.899-28.067 20.864-45.606 30.469-52.251 2.031-.186 4.985.551 9.048 2.212l22.71-7.754 11.63 1.845c19.57-1.66 42.28-7.197 68.316-16.801 6.465-.552 11.265-.181 14.77 1.293l17.359-4.062 51.7-4.429c21.967-1.845 45.785-6.65 71.635-14.59l-.552-5.351c-9.6.923-14.585-.737-14.956-4.62-.552-7.197-7.568-10.15-21.05-9.047l-.552-5.352 14.22-4.062 37.294-3.14-.556-5.351c-1.475.18-9.043 0-23.077-.557l-.556-5.723 14.404-1.294c3.877-.366 5.537-2.216 5.17-5.908-19.389.557-29.174-.366-29.36-2.954-135.156 6.646-202.915 7.94-203.286 3.691-2.03.186-4.8 1.48-8.49 3.697l-3.512-5.542c35.82-76.07 56.87-114.473 62.964-115.03.181 2.955-1.294 7.754-4.619 14.22l.186 2.397 5.722-.552c14.22-33.975 26.221-51.514 36.192-52.251 42.466-3.696-5.908-6.465 84.931-20.679 3.697 1.66 6.28 2.398 8.125 2.212 35.635-7.197 85.303-14.77 149.004-22.524l-.37-5.357-33.975 3.14-.367-5.352c4.063-.37 7.383-1.665 10.157-3.877l.18 2.955c1.85-.186 4.434-1.48 7.76-3.697 5.907-.552 10.336 0 13.476 1.665 11.816-3.14 21.416-4.985 28.432-5.727l21.236-2.032c5.17-3.32 7.568-6.274 7.387-9.042l-.185-2.403c-5.357.552-11.45.186-18.648-1.108-.185-2.954 1.29-4.986 4.8-5.908l39.512-3.692 18.096-4.619c.18 2.031 1.108 2.773 2.583 2.773 1.845-.185 4.433-1.479 7.753-3.696.923.186 2.032.186 2.955.371-2.398 4.986-5.171 12.188-7.94 21.602l-5.17.37c-.367-3.51-1.29-6.645-2.955-9.418l-2.583.186c-48.008 133.676-69.424 195.903-113.735 298.56-8.125 26.22-14.956 40.805-20.864 43.944.185 2.955 2.03 4.43 5.17 4.063 1.104 12.925-1.85 25.664-9.047 38.218-20.498 59.087-34.16 91.396-41.177 97.304l4.614 27.881c.186 2.954-1.289 4.614-4.429 4.986l-4.8.37c-.742-7.758-3.51-11.45-8.496-10.893l-2.583.186c-6.279 9.785-11.079 21.045-14.218 34.155l4.8-.371c6.464-4.243 9.418-9.229 8.862-14.956l9.604-.923 5.537 2.031c-4.428 7.017-6.46 12.559-6.093 16.802l2.588 4.434-6.28 14.77.186 2.402c5.537-.556 11.63 1.29 18.095 5.166 4.43-.366 9.229-2.397 14.585-5.908 5.538-.552 26.216-.737 61.856-.737l17.905-6.094c21.792-.185 25.298.371 44.131-1.289l7.754-.742 4.062-2.769.186 2.403c19.756-1.665 21.05-.371 36.558 1.474l.185 2.403-10.893.923.366 4.614c3.325-.366 6.28-1.294 8.681-3.32 2.769-.186 4.43 1.289 4.615 4.614-4.429.37-9.414 1.474-14.956 3.325l-4.8-1.665c-7.568 2.031-5.908 2.588-11.08 2.954l-7.568-1.475c.186 1.29-.556 2.212-1.845 2.212.18 2.96 1.845 4.434 4.614 4.248l7.754-.737 40.434-3.51 15.328-3.321c.185 1.294.737 2.031 2.03 1.846l7.384-2.769 13.852-1.108c10.708-.923 10.523-1.66 33.784-5.357-.18-1.474.371-2.031 1.48-2.212l.185 2.027c37.852-6.46 40.25-6.831 46.343-8.863l.552 1.109c9.419-2.212 4.062-1.66 6.65-3.506.186 1.66.738 2.397 1.66 2.397l6.646-.551-.366-4.986-13.482-.185-.18-.366c-.557.18-.928.18-1.48.366h-1.846v.37c-9.047 1.847-9.233.553-15.141 1.11l-33.79 1.845-.185-2.402 18.833-2.583 6.831-.557 3.882-2.769.18 2.403c26.593-2.217 36.007 4.428 158.975-21.787 6.646-.557 6.094-6.094 10.342-17.544a11.494 11.494 0 0 1-6.465-1.475c-10.151 3.877-15.507 2.031-35.078 5.171-1.665.186-2.954-1.294-3.51-4.248l-.186-2.031 18.833.551c3.51-.366 10.342-.922 20.498-6.645 0 1.665-3.696 2.588-1.48 2.402zm-909.155 14.585l-8.681.738c-.367-3.506 4.248-16.802 13.847-39.512l5.728-.552c.185 5.352-3.325 18.462-10.894 39.326zm10.523-42.094l-.186-2.403c-.185-2.954 1.665-4.985 5.728-5.908l.18 2.397c.186 3.511-1.66 5.542-5.722 5.914zm115.4 89.18l.186 2.397-14.405 1.294-.185-2.403 14.404-1.289zm-17.358-1.48c.185 2.954-4.243 6.279-13.848 9.6l-17.725-1.29-5.722.552-.552-5.352 37.847-3.51zm116.694-537.11l-8.682.738-.18-2.954c-.186-2.955 1.474-4.986 5.166-5.909l3.14-.185 5.908 2.397c.185 3.511-1.475 5.542-5.352 5.913zm132.017-25.85l2.768-.185.366 5.352-7.939.742c-.18-2.954 1.294-4.985 4.805-5.908zm-33.238 11.632l-13.11-1.48-.186-2.397c17.173-1.48 22.896-3.326 33.423-6.28.186 2.032 2.032 2.769 5.352 2.403l.371 5.351-5.17.557c-4.063.366-7.57-.186-10.523-1.846-3.14 2.031-6.465 3.32-10.157 3.692zm16.436 47.822l-.186-2.403 21.23-2.03.186 2.402-21.23 2.03zm22.71-18.467l-.186-2.954 10.337-.923.186 2.954-10.337.923zm2.397-36.186l-2.768.185 2.402-5.727 23.633-2.212.185 2.954c-6.093.551-14.033 2.212-23.452 4.8zm12.002 50.957l-.37-5.352 10.341-.923c3.51-.371 5.356 1.29 5.542 4.985l-15.513 1.29zm62.593-85.303l-13.296 3.696-2.397.18c-6.28.557-14.405.372-24.004-.551 17.173-1.108 33.603-2.402 39.697-3.325zm-14.219 59.087l.186 2.397-18.277 1.665-.185-2.402 18.276-1.66zm29.912 14.214c-.185-2.212-3.691-3.692-10.893-4.43l-18.277 5.172-14.033.552c-3.14-2.217-4.8-3.692-4.985-4.8l16.25.923 36.558-5.909 18.647.738.186 2.954c-9.234.923-16.988 2.588-23.453 4.8zm188.15-48.56c2.212.186 3.691.186 4.243.186 6.465-6.275 13.667-11.26 21.973-14.77-6.646 29.174-16.988 50.775-31.202 64.809l-10.341-6.28c8.676-21.972 13.847-36.557 15.327-43.945zm-31.758 54.473l2.583-.186c-3.51 6.646-6.645 10.152-9.233 10.337l-.552-7.017c1.66 0 4.062-1.108 7.202-3.134zm-20.498 48.925c4.985-19.94 9.785-31.2 14.219-34.155l.185 2.398c-2.588 18.466-6.65 28.252-12.002 28.989l.923 11.63c-4.433 6.28-6.465 11.08-6.28 14.771l-2.582.186-1.48-16.065c2.954-.366 5.357-2.954 7.017-7.754zm-7.94 26.587c.186 2.774-1.66 9.234-5.351 19.204l-2.588.186-.552-7.017c3.506-8.125 6.46-12.187 8.492-12.373zM1982.647 621.49l-.185-2.026 4.8-.371.552 7.016c-2.584.186-4.43-1.294-5.167-4.619zm212.886 5.542c-.185-1.66-.923-2.402-2.583-2.217l-12.002 1.109-.185-2.402h1.108l28.433-2.398.185 2.398c-8.31.37-13.296 1.665-14.956 3.51zm-14.219-5.908c1.109.552.557 1.108 0 1.475-.551-.181-1.289-.738 0-1.475zm1.48-33.237l-15.879 1.294-.185-2.403 14.399-1.289 12.559-3.14c.185 1.475.922 2.032 2.583 1.846 14.956-2.583 13.481-3.32 20.678-3.877 2.403-.185 3.882 1.294 4.063 4.248l-38.218 3.32zm55.576-4.8c-8.862-.923-9.419-1.66-15.693-1.108l-.186-2.032 14.214-1.289.186 2.031c-1.475.186 3.877.552 1.48 2.398zm1.109-2.583l-.186-2.031 7.754-.738.185 2.032-7.753.737zm17.168-1.48l-.181-2.03c1.289-.181 3.135-1.104 5.537-2.955 3.877-.366 5.908 2.217 6.28 5.171l-11.636-.186zm21.972-2.768l-.185-2.398 9.419-.742.185 2.403-9.419.737zm13.11-1.109c-.185-2.768.923-4.428 3.326-4.8l3.134 4.063c-.18-1.294.372-2.031 1.48-2.217l2.402 4.434-10.341-1.48zm-139.399 60.196l-.371-4.62-1.48.186.372 4.614 1.48-.18zm324.41-84.014c1.474-.923 2.211-1.846-1.295-2.397-1.665 1.845 1.846 2.397-1.845 2.583l.18 1.66c.371-.366 1.294-.923 2.032-1.475l-2.032 1.66v.186l-3.877 4.985 7.754-2.768h.928l-.371-4.62-1.475.186zm13.476 10.527l-1.48.186.371 4.614 10.894-.923c-.186-2.954-7.388-3.877-9.785-3.877z" fill="#000"/><path d="M1764.585 211.963l.186 2.954 6.093-.552c-.185-1.845.552-4.8 1.846-8.496l-.552-5.351c-2.588.185-5.17 4.062-7.573 11.445zM1706.24 71.64l-.552-5.357-8.681.737.556 5.357 8.677-.737zM1536.93 388.662c-.371-4.985-15.88-24.37-46.529-58.53-.556-6.275 9.971-15.694 31.573-28.062l61.67-53.73c13.847-17.544 21.967-45.977 24.37-85.488l-.738-9.048c-2.402-27.33-22.158-49.297-59.638-66.099-22.158-14.956-62.041-23.267-119.644-24.746-47.637 4.062-109.863 21.05-186.484 51.147-21.05 15.142-45.054 30.279-72.012 45.42l.371 4.62c1.66-.186 4.243-1.109 7.202-3.14 3.135-.371 4.986 1.108 5.166 4.062l4.62-2.402 2.211-.186.186 2.032c.185 2.402-16.43 15.508-50.034 38.96l2.583 4.8-2.217.185-5.537-2.031c.185 1.66-2.217 2.768-6.831 3.14l.185 2.03 5.352 6.646c-1.66.186-4.243-.552-7.754-1.846-7.754.738-15.327 4.8-22.896 12.554l3.14-13.662c11.265-48.56 19.019-91.582 23.081-128.877l-.556-2.402c-7.754-4.986-15.323-12.002-22.34-20.864.186-5.723.186-9.048 0-9.786l-.556-2.03-2.212.556c-24.375 36.557-71.274 98.965-140.879 187.221-52.993 62.779-80.322 97.671-81.982 104.688-21.602 22.344-31.944 35.82-30.835 40.44-5.723 3.69-8.125 7.382-7.197 11.445-1.665.37-2.774-.186-3.14-1.846-9.233 14.956-22.896 24.556-41.177 28.804l-19.204 4.428c-2.583.557-3.877 2.403-3.691 5.542l.556 2.398 7.198-1.66.556 2.031-16.25 6.28-28.803 6.645-15.137.923c-2.217 2.216 11.997-.186 6.46 1.108l-18.833 4.434c-11.446 2.583-17.725 1.66-18.833-2.954l-2.217.551c.371 2.032.557 3.506.185 4.8l-1.108-4.614-15.142 3.506c-1.103-7.017-21.601-32.495-61.298-76.44-.738-8.492 13.296-20.865 41.914-36.925l80.869-71.088c18.096-23.262 28.804-60.562 32.314-111.89l-1.108-12.002c-3.14-36.187-29.356-65.361-78.657-87.886-29.17-19.756-81.607-30.283-157.31-31.943-62.778 5.351-144.756 27.695-245.571 66.655-27.695 20.122-59.268 40.064-94.717 59.82l.552 6.279c2.402-.186 5.542-1.475 9.419-3.692 4.062-.37 6.279 1.475 6.645 5.171l6.28-3.51 3.14-.186.18 2.954c.185 2.954-21.787 20.127-66.284 51.514l3.51 5.542-3.14.185-6.83-2.402c.185 1.846-2.954 3.14-9.42 3.691l.372 3.326 7.383 8.125c-2.398.185-5.723-.557-9.966-2.032-14.404 1.29-28.438 11.631-42.285 31.201l3.51 5.542c12.002-11.079 19.014-16.616 21.045-16.801l.743 9.048c-2.032.18-5.171 1.474-9.42 3.691l7.574 11.445a250.254 250.254 0 0 1 48.188-40.434c8.677 2.216 13.296 4.985 13.477 7.94l6.65-.553c47.637-35.268 94.717-60.747 141.43-76.44l.558 6.274c-8.682 12.925-14.59 19.576-17.73 19.942.371 4.433 1.85 8.31 4.62 11.636.737 7.939-20.499 61.484-63.516 160.449C148.633 592.319 66.655 762.554 0 872.598c.186 2.216 1.48 5.17 3.877 8.862 16.436-3.877 26.772-7.935 31.206-11.816l3.506-.367.557 6.275 6.088-.552 6.28-3.506c.185 1.846 2.216 2.769 6.465 2.398l.551 6.279c.552 6.094-2.954 15.322-10.342 28.061-6.645 7.574-13.847 23.453-21.416 47.642l.186 2.95 6.094-.553c26.587-29.726 46.714-58.9 60.561-87.333 77.55-22.71 136.631-45.054 177.622-67.022 41.172-3.51 72.559-14.404 93.98-32.314l-.371-3.32-15.508 4.614-3.51.37-.367-3.325c30.278-4.614 51.143-11.264 62.778-20.493 58.897-45.425 103.394-77.549 133.492-96.567 61.855-45.42 102.104-89.736 120.385-132.754 3.32-.742 6.646-1.48 10.337-2.402 8.677-.367 13.482-.552 14.77-.923-.366-1.66.372-2.583 2.032-2.954 13.848-1.475 7.202.923 16.064-1.109l23.267-5.351 3.877-.928-1.846 1.108c2.583.371 5.352.186 8.491-.551l1.66 6.83-105.795 168.204-23.448 29.36-11.45 38.403 2.217-.551 11.445-4.8-3.691 14.956 1.108 4.429 3.14 3.877c-1.48.37-2.031 1.294-1.665 2.954l.557 2.402 4.8-1.108c7.016-6.094 9.97-11.631 8.862-16.617 7.568 1.29 12.553 1.846 15.141 1.109l.552 2.397c-4.614 1.109-7.017 4.8-7.383 11.08l.552 2.397 2.588-.552c38.403-41.914 132.568-185.376 208.086-282.68-2.403-10.523 36.929-25.113 118.169-43.946l2.583-.552c2.954 12.74-3.32 43.575-18.833 92.505-9.97 29.541-14.77 45.786-14.033 48.374-12.925 39.326-19.019 60.562-18.277 63.882l-28.803 94.35c-18.653 48.38-32.867 99.151-42.837 152.696 1.66-.366 4.248-.18 7.939.742l4.063-3.51c.366 1.664 1.474 2.216 3.14 1.845l-1.666-6.83 12.559-.367c3.691-.923 6.83-5.542 9.414-14.033-.552-12.74 2.031-19.57 7.754-21.05 7.754-30.278 12.558-45.42 14.218-45.977 7.203-30.092 12.554-47.265 16.065-51.513 10.893-39.141 18.833-59.268 24.004-60.562l1.108 4.8-7.94 20.498c-13.852 61.484-27.88 110.044-42.099 145.679l4.063 17.724 2.583-.551c34.345-73.858 83.828-220.093 148.266-438.702 1.846-19.204 11.08-34.16 27.51-44.682l-3.691-3.877-.557-2.031c7.388-1.665 12.559-4.615 15.513-8.677-.371-1.665-6.831-4.063-19.39-7.388l32.129-137.74c7.017-6.278 11.079-9.599 12.368-9.599l.557 7.012c-1.66.185-4.248 1.108-7.202 3.14l6.093 8.681c11.08-12.002 23.081-22.344 36.187-31.02 6.65 1.845 9.97 4.062 10.342 6.274l4.8-.366c36.557-26.773 72.377-45.977 107.646-57.607l.366 4.614c-6.46 9.785-10.893 14.77-13.29 14.956.365 3.325 1.288 6.28 2.953 8.862.552 6.094-15.327 46.714-47.822 122.046-74.224 174.482-136.45 303.545-187.041 387.373.186 1.66 1.294 3.877 3.325 6.831 12.373-2.954 20.313-6.094 23.452-9.048l2.212-.185.371 4.614 5.171-.366 4.614-2.403c.186 1.294 1.846 1.846 4.986 1.665l.37 4.986c.367 4.429-2.216 11.445-7.939 21.045-5.356 5.727-10.893 17.73-16.801 36.006l.18 2.402 4.805-.371c20.122-22.525 35.45-44.683 45.972-66.47 58.901-17.353 103.77-34.16 134.785-50.776 31.577-2.769 55.39-10.894 71.64-24.556l-.185-2.402-12.002 3.51-2.583.186-.186-2.402c22.896-3.325 38.96-8.492 47.637-15.323 44.683-34.345 78.472-58.9 101.367-73.305 71.27-51.88 104.507-101.734 100.445-149.556zm-12.188 3.14l1.66 18.647c-2.212 4.62-4.614 7.017-6.83 7.202l-2.77-31.757c5.172 1.845 7.755 3.691 7.94 5.908zM126.661 241.509l-3.136.18-.556-5.722 12.739-1.109.186 2.954c-2.032.186-5.171 1.294-9.234 3.697zM64.437 863.92c-7.382-3.325-14.033-4.614-19.755-4.063l-.738-9.047c-.37-3.506 1.66-5.909 6.094-6.832 4.058-.366 6.46 2.588 6.831 8.497 10.708-13.11 16.616-19.756 17.725-19.942l6.83 2.769c-2.216 18.462-7.939 27.88-16.987 28.618zm664.883-695.532c-3.14.37-9.419-9.414-18.462-28.804l-.556-5.723c5.908-.551 12.002 9.048 18.462 28.804l.556 5.723zM720.46 99.52l-2.588 6.094-90.288-37.67c60.195 2.03 91.216 12.558 92.876 31.576zm-381.28 327.364l-12.739 1.108-.551-5.727 12.739-1.109.552 5.728zm-10.341-196.64l3.14-.186.742 9.047c-2.954.186-6.831 4.615-11.636 13.11l-.552-6.279c5.723-6.83 8.677-12.001 8.306-15.693zm-26.773 63.144l1.109 12.002-3.135.185-1.108-12.002 3.134-.185zm-14.028 22.529l6.094-.557c-.557 9.971-3.325 15.327-8.31 15.694l-3.14.185c3.877-6.645 5.722-11.816 5.356-15.322zm-10.527 31.387l3.51-.371.181 2.954-5.722 9.604-6.094.552-.18-2.954c6.093-.552 8.861-3.692 8.305-9.785zm-10.337 28.252l-1.846 15.136-3.14.186-1.293-14.956 6.279-.366zM163.589 670.054c-4.063 20.678-8.491 31.2-13.11 31.572l-.181-2.954c-1.109-10.156 3.32-19.756 13.29-28.618zm-19.019 41.172l.186 2.954c.371 4.062-1.475 6.465-5.537 6.645l-.186-2.954c-.37-3.506 1.475-5.723 5.537-6.645zm-5.537 85.488l9.6-.923.37 3.325c-2.401.18-5.541 1.475-9.418 3.692l-6.094.551c-.366-3.14 1.665-5.537 5.542-6.645zm273.262-84.38c-53.911 26.587-85.669 44.683-95.088 54.097-58.345 20.312-87.334 32.866-86.777 37.851-51.885 20.498-86.045 35.635-102.476 45.054-3.877.366-9.414-1.108-16.802-4.434-.923-10.522 3.877-19.018 14.034-25.85 9.047-.737 17.724.557 26.035 4.063 9.6-4.985 26.401-10.522 50.22-16.43l-.552-6.28-19.204 1.66c2.397-3.32 20.864-11.997 55.576-26.03l9.6-.923.185 2.954c-16.43 1.475-25.479 6.275-27.51 14.956.366 3.877 2.583 5.538 6.646 5.166 12.373-7.753 18.462-12.368 18.28-13.662 23.448-4.428 88.258-38.403 194.425-101.733l.554 5.723c.183 2.768-8.865 10.522-27.146 23.818zm-162.847 53.545c15.508-1.294 28.804-7.568 39.878-18.462 4.434-.371 6.836 1.29 7.017 5.166-7.569.742-22.154 7.017-43.389 19.204l-3.14.186-.366-6.094zm262.74-201.812l-81.426 64.624c-60.562 39.698-93.057 59.64-97.862 60.01-96.377 52.988-156.386 80.503-179.648 82.534l-3.51.367c2.953-10.894 45.79-98.594 128.876-263.663 36.558-3.14 94.165-20.127 172.637-51.142l19.204-1.665c39.697-3.506 69.424 4.248 88.994 22.71l1.109 12.002c-14.585 42.285-30.835 67.026-48.375 74.223zm-159.16-89.546l13.11-1.108.185 2.954-13.11 1.109-.186-2.955zm184.086-31.206l9.6-.922c8.862 4.248 13.476 7.939 13.848 11.264l.185 2.954c-8.496.738-16.435-3.696-23.633-13.296zm26.03-148.261c-8.49 10.151-31.757 27.51-69.79 51.88-12.558 1.108-59.272 19.204-140.141 54.653a25.635 25.635 0 0 0-12.925-2.217l-.552-5.723c-.923-11.63 4.243-26.215 15.694-43.94 6.274-33.237 13.11-52.256 20.678-56.87l67.393-151.587c-.737-9.419 13.662-16.621 43.203-21.606l9.605-.923.737 8.681c28.99-4.433 47.08-7.016 54.097-7.573 53.55-4.614 81.425 6.28 83.642 32.315l6.094-.557-1.294-15.322 6.65-.557c15.694 8.677 24.185 19.204 25.293 31.572.738 8.496-3.877 19.019-13.662 31.577-4.062.367-6.465-2.587-6.83-8.496l-6.651.557-1.475 18.462c-27.143 40.62-46.9 61.484-59.082 62.593-11.079 15.322-17.91 22.895-20.683 23.08zm41.363 106.167c-5.542-3.697-9.97-5.357-13.296-5.171l-.737-9.048 6.093-.557 13.477 7.945c.557 4.243-1.294 6.46-5.537 6.83zm42.837 50.771c5.908 2.403 9.414 4.986 10.151 7.388l-2.954.737.186.186c-.552 0-1.294.185-1.846.37l-4.434 3.507-1.103-12.188zm4.057 25.484l-.551-2.403 7.754-1.845.556 2.402-7.759 1.846zm18.653 20.864c7.94-1.294 11.816-1.846 26.587-5.171l.551 2.397-28.061 6.465c.366-1.294.737-2.583.923-3.691zm27.324 11.63c-11.816 1.11-9.233-.37-28.066 3.878l-.552-2.403 23.633-7.568 11.264-2.583 1.109 4.429c-5.171 1.108-1.48 1.108-7.388 4.248zm24.927-5.908c-2.769.738-4.986-.551-6.28-3.69l7.203-1.666c3.14-.737 5.17.557 5.908 3.696l-6.831 1.66zm67.578-72.749l-.557-2.397 11.636-2.773 1.108 4.433-12.187.737zm72.192 442.764c.737-3.325.923-5.723.552-7.388l2.588-.551c3.14-.738 4.985.37 5.722 3.325l.557 2.397-9.419 2.217zm50.591-423.745l-5.17-.923c-8.307 3.325-15.323 5.723-21.05 7.017l-4.8 1.108c-2.769.737-4.986-.37-6.094-3.325l33.789-7.754 11.079-5.17 3.696 4.247c-5.356 1.109-9.233 2.769-11.45 4.8zm26.035-8.31l-.556-2.398c1.665-.371 3.876-1.66 6.279-4.062l24.004-5.542.551 2.402c-12.739 3.14-22.895 6.28-30.278 9.6zm3.692-48.56c-1.66.371-3.877 1.846-6.646 4.062-.371-1.66-3.691-1.66-9.97-.185-1.109-4.614 16.616-11.074 53.359-19.57l5.17-1.109 1.109 4.434c-25.85 7.568-40.254 11.816-43.022 12.368zm64.624-69.79c-2.583 29.355-12.925 45.972-31.206 50.22l-.552-2.398-16.25 6.275-7.197 1.665c-3.697.922-7.017.737-9.971-.186l-1.48-6.465c-.551-2.397 22.896-34.897 70.533-97.304l5.537.922c2.03 8.496-1.104 24.19-9.414 47.27zm114.292-97.861l-2.217.185-.371-4.614 9.604-.923.18 2.397c-1.66.372-4.057 1.294-7.196 2.955zm-47.085 472.86c-5.537-2.587-10.523-3.695-14.77-3.324l-.553-7.017c-.185-2.397 1.29-4.062 4.43-4.985 3.139-.366 4.984 1.845 5.356 6.645 7.939-10.151 12.368-15.322 13.29-15.322l4.986 2.031c-1.846 14.033-6.089 21.416-12.74 21.973zm504.8-528.066c-2.398.186-7.017-7.202-14.214-22.158l-.372-4.614c4.615-.371 9.42 6.831 14.22 21.602l.365 5.17zm-6.646-52.807l-2.217 4.8-68.315-28.619c45.605 1.48 69.238 9.42 70.532 23.819zm-289.697 248.71l-9.6.924-.371-4.62 9.6-.922.37 4.619zm-7.94-149.374l2.583-.186.557 7.017c-2.402.185-5.357 3.51-8.862 9.97l-.372-4.614c4.249-5.356 6.28-9.419 6.094-12.187zm-20.127 48.008l.742 9.047-2.587.186-.738-9.048 2.583-.185zm-10.893 17.168l4.8-.367c-.552 7.754-2.583 11.817-6.09 12.183l-2.587.186c2.768-5.166 4.062-9.229 3.877-12.002zm-7.754 23.637l2.217-.185.185 2.397-4.248 7.388-4.8.371-.185-2.402c4.985-.371 7.202-2.954 6.83-7.569zm-7.754 21.416l-1.66 11.817-2.217.185-.923-11.63 4.8-.372zm-78.843 223.965c-3.135 15.513-6.46 23.452-9.97 23.818l-.181-2.03c-.557-7.755 2.768-15.142 10.151-21.788zm-14.585 31.206l.186 2.031c.37 3.32-1.109 5.166-4.434 5.352l-.18-2.397c-.186-2.403 1.289-4.063 4.428-4.986zm-4.062 64.99l7.387-.551.181 2.397c-1.66.186-4.243 1.109-7.197 2.774l-4.8.366c-.186-2.583 1.289-4.243 4.429-4.986zm207.348-64.067c-40.62 20.127-64.81 33.79-72.378 40.806-44.311 15.508-66.284 25.107-65.913 28.984-39.33 15.698-65.18 26.958-77.363 34.16-2.954.186-7.202-.923-12.744-3.506-.737-7.94 2.954-14.404 10.713-19.204 7.016-.551 13.662.371 19.756 2.954 7.382-3.691 20.122-7.754 38.217-12.373l-.366-4.614-14.956 1.294c1.846-2.588 16.06-9.233 42.466-19.941l7.383-.557.185 2.031c-12.553 1.109-19.57 4.805-21.05 11.45.186 2.955 2.032 4.43 5.171 4.063 9.234-6.094 13.662-9.605 13.662-10.708 17.73-3.14 66.841-28.99 147.53-77.363l.366 4.614c0 1.846-6.831 7.754-20.679 17.91zm-123.706 40.62c12.002-1.108 22.158-5.723 30.65-13.848 3.14-.185 4.985 1.109 5.17 4.063-5.541.552-16.435 5.17-32.866 14.033l-2.583.18-.37-4.428zm199.78-153.432l-61.484 49.482c-45.976 30.093-70.903 45.234-74.78 45.605-73.115 40.25-118.54 61.114-136.45 62.593l-2.583.18c2.216-8.305 34.897-74.96 98.042-200.146 27.51-2.397 71.089-15.507 130.908-39.14l14.956-1.294c30.098-2.583 52.622 3.325 67.392 17.539l.743 9.048c-11.265 31.758-23.452 50.405-36.743 56.133zm-120.756-67.95l9.604-.923.18 2.403-9.599.923-.185-2.403zm139.77-23.818l7.388-.552c6.83 3.32 10.342 6.275 10.522 8.677l.186 2.031c-6.46.552-12.554-2.768-18.096-10.156zm19.39-112.446c-6.465 7.758-24.004 21.05-52.622 39.516-9.6.923-45.054 14.585-106.353 41.172-2.954-1.108-6.28-1.474-9.785-1.294l-.371-4.614c-.737-8.862 3.14-19.941 11.636-33.418 4.8-25.483 10.151-39.697 15.693-43.022l51.514-115.215c-.557-6.831 10.337-12.369 32.495-16.617l7.388-.551.551 7.011c21.787-3.505 35.45-5.537 40.992-6.088 40.62-3.511 61.85 4.614 63.515 24.555l4.8-.37-.923-11.08 4.8-.366c11.816 6.46 18.096 14.214 18.833 23.447.552 6.646-2.769 14.77-9.785 24.19-3.14.366-4.986-1.846-5.357-6.65l-4.8.37-1.474 13.848c-20.498 31.206-35.454 47.266-44.868 48.008-8.31 11.26-13.482 16.987-15.88 17.168zm21.601 76.811l-.551-7.016 4.8-.367 10.336 6.275c.186 2.954-1.289 4.619-4.428 4.985-4.434-2.768-7.754-4.062-10.157-3.877zM614.658 791.73l-4.8 1.108-4.062 3.506c.742 2.954 2.588 4.062 5.727 3.325 3.135-.737 4.43-2.583 3.692-5.537l-.557-2.402zm-18.276-36.373l.552 2.398c3.14-.737 4.433-2.583 3.696-5.537l-.557-2.403c-2.954.738-4.248 2.588-3.691 5.542zm130.722-245.57l3.511-2.218c-.742 0-1.294-.185-1.85-.366-1.29.366-1.846 1.29-1.66 2.583zm-.737-63.702l5.537-1.29-1.108-4.804-5.537 1.294 1.108 4.8zm1304.84 186.484l-12.56-1.474-2.216 4.8.185 2.402 74.78-6.28-.37-4.614-59.82 5.166zm68.314-5.722l.367 4.614h.737l-.366-4.614h-.738zm313.697-40.992l.37 4.62 8.126 1.474-.371-4.614-8.125-1.48zm-11.446.923c-56.127 12.559-63.144 10.342-74.96 11.265l.366 4.614 5.17-.366 2.77-.186-.738-.551 6.094-2.403c55.576-6.093 62.036-3.877 61.484-10.156l-.186-2.217zm-336.962-81.606l-4.986-1.66c-4.062 10.888-6.094 17.353-5.908 19.199l.18 2.031c3.883-.185 7.388-6.83 10.714-19.57zm-67.579-36.372l-.185-2.403-2.583.186-4.62 2.954 2.589 4.429c3.505-.366 5.166-2.031 4.8-5.166zm146.788 151.767l-.372-4.614-1.474.186.366 4.614 1.48-.186zm304.653-68.681l3.506-.371c2.031-.186 2.954-1.846 2.768-4.8l-2.031-4.434c-12.74 1.109-18.647 1.665-28.984 7.388l-.186-2.402-15.327 1.48c-.366-4.62-1.66-7.017-3.691-6.832l-7.94.737c-9.233.738-13.662.371-18.281 3.877-.18-1.66-.737-2.402-1.66-2.402l-8.863.742-5.17 2.954c-.186-1.665-.738-2.402-1.66-2.402l-3.14 2.768-.186-2.397-12.368-.923-2.954.186.366 4.614 6.28 1.66 5.908-.366c2.03 1.289 4.248 1.66 6.83 1.475l5.172-2.583.185 2.03c-28.99 7.198-28.804 5.909-48.745 9.23-2.217-1.475-3.877-2.213-4.985-2.032l-.371.371c-2.212-.185-3.506-1.66-3.692-4.062l10.342-1.294c.737 0 1.289.742 7.012 1.85 8.31-4.062 8.681-5.727 13.11-6.093l-.366-4.62c-28.438 5.542-16.988 1.846-52.622 4.986l-1.665.185-.367-4.614c45.791-5.542 30.464-2.402 46.158-6.831.185 1.66.742 2.397 1.665 2.397a10.771 10.771 0 0 1 6.274-3.14l3.14-.18c16.064-1.294 21.42 1.846 53.178-7.016l.181 2.03 5.171-2.587 4.8-.366c-.366-4.62 6.65-5.357 9.048-5.542l-.366-4.986c-55.762 11.265-70.352 8.125-85.86 12.559l-.185-2.031c-14.585 2.583-15.137 1.474-18.833 1.66-1.109.185-2.769 1.108-4.615 2.954-.185-1.66-.737-2.402-1.845-2.402-.557 0-.738.185-.923.185l-47.27 7.754c-.181-1.289-.738-2.031-1.846-1.846-24.556 5.171-17.91 6.094-50.777 9.048-1.474.186-3.506.923-6.089 2.583-.185-1.289-.927-2.026-2.588-1.846l-20.127 1.666-13.476 3.32c-.186-1.29-.923-2.031-2.583-1.846-7.573 2.031-14.219 3.325-19.575 3.692h-.367c-3.325.37 1.66-.923-.922-2.027l-4.063 2.398c-5.908.556-2.768-.371-23.08-.186-35.636 4.434-31.759 4.985-35.636 5.171l-13.296-.923c.186 1.294-.551 2.217-2.03 2.217-15.138-2.031-22.891-4.434-23.077-7.202 2.031-14.4 5.537-21.787 10.522-22.158l2.588-.181-2.216 4.8 2.583-.186c4.8-2.588 7.016-4.985 6.83-7.202l-.366-4.985-4.804.37-.366-4.618c-.372-3.506.185-6.646 1.474-9.229l10.894-17.544.37 4.62 5.172-.372-.371-4.614-2.955-4.248c3.877-3.325 6.832-5.171 9.234-5.357l-.186-2.397-7.016.552-.552-7.017c14.033-29.17 20.679-46.157 20.308-50.957l4.985 2.031c3.14-.185 4.614-2.03 4.434-5.356l-4.805.371-.18-2.031a17.554 17.554 0 0 1 1.845-9.785c7.568-7.94 11.079-15.88 10.337-24.19 1.48-.185 2.217.557 2.402 2.217 6.465-3.691 11.45-13.481 15.142-29.727 11.445-20.678 27.695-62.04 48.926-123.891 40.625-109.307 38.96-120.938 44.682-146.787l-4.8.366c.371 3.325-.366 6.465-1.845 9.419-3.326-1.294-5.909-2.031-7.754-1.846l-.186-2.031c-.737-9.42 3.14-20.679 12.002-33.975l2.217-.185 4.062 15.879 4.8-.367c-.185-1.108 1.109-7.387 3.692-19.018-.186-2.402-2.032-3.877-5.723-4.063l-4.614 2.954c-.371-3.325-.186-12.001.366-25.85l-2.402.186c-4.058-4.062-6.09-7.387-6.275-10.156l-26.406 2.583c-.18-1.846-1.104-4.614-2.954-8.125-.18-2.397 5.727-4.8 17.91-7.197l5.356 2.031 4.986-2.954c.185 1.66 1.108 2.398 2.954 2.212l4.985-2.954c.186 1.665 1.109 2.402 2.954 2.217l2.403-.186-.371-5.351c-3.692.366-13.477.366-28.99-.186l-4.985 3.325-.186-2.954c-123.891 10.151-194.238 15.879-211.04 17.54-2.216.185-10.893 0-26.215-.372.18 2.031-1.665 3.14-5.357 3.51l-5.356-2.402-18.091 4.62c-4.248.366-11.45.18-21.421-.928-2.769 2.217-6.094 3.51-10.156 3.882-2.212.18 26.406-1.48 52.993-3.325-2.769 2.216-7.017 3.505-12.925 4.062-4.062.366-7.568-.186-10.522-1.846-4.063 1.846-17.173 4.8-39.146 9.229l-5.351-2.031-86.412 13.295c-3.325-1.66-7.202-2.216-11.635-1.845-4.615.366-12.369 2.031-23.077 4.985L1709.751 66.1l3.135 5.17c2.031-.185 4.985-1.293 8.496-3.325l14.77 1.294-1.845 13.848c-13.662 6.094-21.602 15.142-23.819 26.587-20.493 9.048-30.65 15.513-30.65 19.39l.186 2.397 3.135-.18 5.542-2.955 6.46 7.754.923 10.708c.371 3.325-34.155 75.884-103.213 217.69-59.82 136.631-91.21 211.412-94.165 224.888-20.493 5.723-32.31 14.033-35.82 25.113.37 3.505 6.465 5.908 18.281 6.83l.552 5.352-5.352 8.862.923 10.713c.552 5.537 15.508 9.786 44.868 12.74-.185-1.846.738-2.954 2.769-3.14.552 6.645-1.294 19.57-5.542 38.774l3.14-.185c12.187-16.616 17.91-28.067 17.358-34.341l2.583-.186c2.954-.185 6.094 3.14 9.785 10.337-3.691 1.48-16.616 30.835-38.774 88.257l3.14 5.171 3.139-.185c27.143-68.682 44.13-106.72 51.142-113.921 35.64-3.14 97.305-9.414 184.825-18.833l5.542-3.326c.18 1.851 1.289 2.774 3.32 2.588l5.727-.556 5.538-3.32c.185 1.845 1.294 2.768 3.325 2.582l66.284-5.722c17.539-1.48 25.85-6.831 25.107-15.88-.18-2.402 10.157-5.17 31.02-8.124 2.032-.186 4.986.37 9.049 1.66-.186-1.66 10.342-3.32 31.391-5.166.552-11.08 4.058-16.987 10.337-17.544l-.551-5.352c-5.909.552-12.56 2.032-20.313 4.615-13.848-.738-22.71-1.846-26.401-3.14-3.697 2.031-6.465 3.14-8.496 3.325l-46.158 1.475-5.542 2.954c-.185-1.66-1.289-2.397-3.32-2.212l-2.588.18-5.908 2.96c-.186-1.665-4.985-2.96-14.585-4.248l-5.908 3.506-11.446.922-.185-2.954c59.453-6.46 88.809-14.585 88.071-24.184 3.877-.371 5.908 1.474 6.275 5.351l17.358-4.428-.552-5.357-142.358 3.877c.185 1.846-.737 2.954-2.769 3.14l-17.358-1.475c-4.429.366-8.12 1.66-11.074 3.877l-6.465-2.402c-17.91 1.48-31.206 3.691-40.069 6.465-12.182-.923-25.664-.743-40.62.551l-31.938 2.769-14.77-1.66c-.743-9.42 17.538-55.762 55.204-138.848 10.894-28.066 20.865-45.605 30.464-52.25 2.032-.186 4.986.55 9.048 2.211l22.71-7.754 11.631 1.846c19.575-1.66 42.285-7.197 68.32-16.802 6.46-.552 11.26-.18 14.77 1.294l17.354-4.063 51.7-4.433c21.972-1.846 45.79-6.646 71.64-14.585l-.556-5.352c-9.6.923-14.585-.742-14.952-4.619-.556-7.197-7.573-10.156-21.05-9.048l-.556-5.351 14.219-4.063 37.295-3.14-.552-5.35c-1.48.18-9.048 0-23.081-.558l-.552-5.722 14.4-1.294c3.876-.366 5.541-2.217 5.17-5.908-19.384.551-29.174-.371-29.355-2.954-135.156 6.645-202.92 7.939-203.286 3.691-2.032.186-4.805 1.48-8.496 3.696l-3.506-5.542c35.815-76.07 56.865-114.477 62.959-115.029.185 2.954-1.294 7.754-4.434 14.219l.186 2.397 5.727-.552c14.214-33.974 26.216-51.513 36.187-52.25 42.466-3.697-5.908-6.465 84.936-20.684 3.692 1.665 6.275 2.402 8.12 2.217 35.635-7.203 85.303-14.77 149.004-22.525l-.37-5.356-33.97 3.14-.372-5.357c4.063-.366 7.388-1.66 10.157-3.877l.185 2.954c1.846-.18 4.429-1.474 7.754-3.691 5.908-.552 10.337 0 13.477 1.66 11.816-3.135 21.42-4.985 28.437-5.723l21.23-2.031c5.172-3.32 7.574-6.274 7.388-9.048l-.185-2.397c-5.357.551-11.446.185-18.648-1.109-.185-2.954 1.29-4.985 4.8-5.908l39.512-3.691 18.096-4.62c.185 2.032 1.108 2.77 2.583 2.77 1.845-.182 4.433-1.476 7.753-3.692.928.185 2.032.185 2.955.37-2.398 4.986-5.166 12.188-7.94 21.602l-5.166.371c-.371-3.51-1.294-6.65-2.954-9.419l-2.588.186c-48.003 133.677-69.424 195.903-113.735 298.56-8.125 26.22-14.956 40.805-20.864 43.945.185 2.954 2.03 4.429 5.17 4.062 1.109 12.925-1.845 25.664-9.047 38.218-20.498 59.087-34.16 91.397-41.177 97.305l4.619 27.88c.18 2.955-1.294 4.615-4.434 4.986l-4.8.371c-.737-7.759-3.51-11.45-8.49-10.893l-2.589.18c-6.279 9.785-11.079 21.05-14.213 34.16l4.8-.37c6.46-4.244 9.413-9.23 8.862-14.957l9.6-.923 5.536 2.032c-4.428 7.016-6.46 12.558-6.088 16.801l2.583 4.434-6.28 14.77.186 2.403c5.542-.557 11.63 1.289 18.095 5.166 4.43-.366 9.234-2.398 14.585-5.908 5.542-.552 26.221-.738 61.856-.738l17.91-6.093c21.787-.186 25.293.37 44.126-1.294l7.754-.738 4.062-2.768.186 2.402c19.756-1.665 21.05-.37 36.558 1.475l.185 2.402-10.893.923.37 4.614c3.321-.37 6.275-1.294 8.677-3.325 2.769-.18 4.43 1.294 4.615 4.62-4.429.365-9.414 1.474-14.956 3.32l-4.8-1.66c-7.568 2.03-5.908 2.582-11.08 2.953l-7.568-1.474c.186 1.289-.551 2.212-1.845 2.212.185 2.954 1.845 4.433 4.614 4.248l7.754-.737 40.44-3.511 15.322-3.32c.185 1.289.737 2.03 2.03 1.845l7.389-2.768 13.847-1.109c10.708-.923 10.523-1.665 33.79-5.356-.186-1.475.365-2.032 1.474-2.217l.185 2.031c37.852-6.46 40.25-6.83 46.343-8.862l.557 1.108c9.414-2.216 4.062-1.66 6.645-3.506.186 1.66.738 2.398 1.66 2.398l6.65-.552-.37-4.985-13.477-.186-.185-.37c-.557.185-.923.185-1.48.37h-1.846v.371c-9.047 1.846-9.233.552-15.141 1.109l-33.79 1.845-.18-2.402 18.833-2.583 6.831-.557 3.877-2.768.186 2.402c26.587-2.217 36 4.429 158.97-21.787 6.65-.557 6.093-6.094 10.341-17.544a11.47 11.47 0 0 1-6.46-1.474c-10.156 3.877-15.512 2.03-35.083 5.17-1.66.186-2.954-1.293-3.51-4.248l-.186-2.03 18.833.55c3.51-.365 10.342-.922 20.498-6.645 0 1.66-3.877 2.583-1.665 2.403h.005zm-909.16 14.585l-8.677.737c-.371-3.506 4.248-16.802 13.848-39.512l5.722-.551c.186 5.351-3.325 18.461-10.893 39.326zm10.527-42.1l-.185-2.397c-.186-2.954 1.66-4.986 5.722-5.909l.186 2.398c.185 3.51-1.665 5.542-5.723 5.908zm115.396 89.18l.185 2.402-14.4 1.294-.185-2.402 14.4-1.294zm-17.354-1.475c.186 2.954-4.248 6.28-13.848 9.6l-17.73-1.29-5.722.553-.552-5.357 37.852-3.506zm116.69-537.114l-8.677.742-.186-2.954c-.185-2.954 1.48-4.985 5.171-5.908l3.14-.186 5.908 2.398c.18 3.51-1.48 5.542-5.356 5.908zm132.016-25.85l2.769-.18.37 5.351-7.939.738c-.185-2.955 1.29-4.98 4.8-5.909zm-33.237 11.636l-13.106-1.48-.185-2.397c17.173-1.48 22.895-3.325 33.418-6.28.185 2.032 2.031 2.77 5.356 2.403l.366 5.352-5.166.556c-4.062.367-7.573-.185-10.527-1.85-3.14 2.031-6.46 3.325-10.156 3.696zm16.435 47.822l-.185-2.402 21.235-2.031.186 2.402-21.236 2.031zm22.71-18.466l-.185-2.955 10.342-.922.185 2.954-10.342.923zm2.403-36.187l-2.774.18 2.403-5.722 23.632-2.217.186 2.954c-6.094.557-14.033 2.217-23.447 4.805zm12.002 50.957l-.371-5.352 10.341-.922c3.506-.371 5.352 1.289 5.537 4.985l-15.507 1.289zm62.588-85.303l-13.292 3.697-2.402.18c-6.274.557-14.4.371-24.004-.551 17.173-1.109 33.609-2.403 39.697-3.326zm-14.214 59.087l.185 2.398-18.281 1.665-.186-2.403 18.282-1.66zm29.912 14.214c-.186-2.212-3.697-3.691-10.894-4.429l-18.281 5.171-14.033.552c-3.14-2.217-4.8-3.691-4.986-4.8l16.25.923L2000 84.38l18.647.737.186 2.954c-9.233.923-16.987 2.588-23.447 4.8zm188.144-48.56c2.217.186 3.692.186 4.248.186 6.46-6.28 13.662-11.265 21.973-14.77-6.65 29.174-16.987 50.776-31.206 64.81l-10.342-6.28c8.682-21.973 13.853-36.558 15.327-43.945zm-31.758 54.468l2.583-.18c-3.505 6.645-6.645 10.151-9.228 10.337l-.557-7.017c1.665 0 4.063-1.108 7.202-3.14zm-20.493 48.931c4.986-19.941 9.785-31.201 14.214-34.155l.186 2.397c-2.583 18.462-6.646 28.252-12.002 28.99l.923 11.63c-4.43 6.28-6.46 11.08-6.28 14.77l-2.583.186-1.474-16.064c2.954-.366 5.351-2.954 7.016-7.754zm-7.94 26.587c.182 2.768-1.664 9.233-5.356 19.204l-2.583.186-.556-7.017c3.51-8.125 6.465-12.188 8.491-12.373h.005zm-149.003 432.422l-.186-2.032 4.8-.366.557 7.017c-2.588.185-4.434-1.294-5.171-4.62zm212.886 5.542c-.186-1.665-.923-2.403-2.583-2.217l-12.002 1.108-.186-2.402h1.109l28.432-2.397.186 2.397c-8.306.371-13.291 1.665-14.956 3.51zm-14.214-5.908c1.108.551.552 1.108 0 1.474-.557-.185-1.294-.737 0-1.474zm1.474-33.238l-15.878 1.294-.186-2.402 14.404-1.29 12.554-3.139c.186 1.475.923 2.031 2.588 1.846 14.956-2.583 13.476-3.325 20.679-3.877 2.397-.186 3.877 1.294 4.062 4.248l-38.223 3.32zm55.577-4.8c-8.863-.922-9.414-1.66-15.694-1.108l-.185-2.031 14.218-1.29.186 2.032c-1.48.18 3.877.552 1.475 2.397zm1.108-2.583l-.186-2.03 7.754-.743.186 2.031-7.754.742zm17.173-1.48l-.186-2.03c1.294-.181 3.14-1.109 5.537-2.954 3.877-.367 5.909 2.216 6.28 5.17l-11.631-.185zm21.972-2.768l-.185-2.402 9.414-.737.186 2.402-9.414.737zm13.106-1.108c-.18-2.769.923-4.429 3.325-4.8l3.14 4.063c-.186-1.294.366-2.032 1.474-2.217l2.403 4.433-10.342-1.479zm185.01-23.818c1.474-.923 2.217-1.846-1.294-2.398-1.66 1.846 1.845 2.398-1.846 2.583l.186 1.66c.366-.366 1.294-.923 2.03-1.474l-2.03 1.66v.185l-3.877 4.986 7.754-2.769h.922l-.37-4.619-1.475.186zm13.476 10.527l-1.474.18.366 4.62 10.893-.923c-.18-2.954-7.382-3.877-9.785-3.877z" fill="#F9DC3E"/></g></svg>