<?xml version="1.0" encoding="UTF-8"?>
<svg width="39px" height="40px" viewBox="0 0 39 40" version="1.1" xmlns="http://www.w3.org/2000/svg" xmlns:xlink="http://www.w3.org/1999/xlink">
    <!-- Generator: Sketch 55.2 (78181) - https://sketchapp.com -->
    <title>netlify</title>
    <desc>Created with Sketch.</desc>
    <defs>
        <radialGradient cx="50%" cy="-50%" fx="50%" fy="-50%" r="100.10989%" gradientTransform="translate(0.500000,-0.500000),scale(1.000000,0.998901),rotate(90.000000),translate(-0.500000,0.500000)" id="radialGradient-1">
            <stop stop-color="#20C6B7" offset="0%"></stop>
            <stop stop-color="#4D9ABF" offset="100%"></stop>
        </radialGradient>
    </defs>
    <g id="Page-1" stroke="none" stroke-width="1" fill="none" fill-rule="evenodd">
        <g id="netlify" fill="url(#radialGradient-1)" fill-rule="nonzero">
            <path d="M27.887,14.135 L27.873,14.129 C27.865,14.126 27.857,14.123 27.85,14.116 C27.8267454,14.0910219 27.8164014,14.056665 27.822,14.023 L28.595,9.297 L32.22,12.923 L28.45,14.527 C28.4395229,14.5312249 28.4282937,14.5332666 28.417,14.5330231 L28.402,14.5330231 C28.397,14.53 28.392,14.526 28.382,14.516 C28.2416992,14.3597855 28.07392,14.2306463 27.887,14.135 Z M33.145,13.847 L37.021,17.723 C37.826,18.529 38.229,18.931 38.376,19.397 C38.398,19.466 38.416,19.535 38.43,19.606 L29.167,15.683 C29.1620223,15.6809446 29.157022,15.6789445 29.152,15.677 C29.115,15.662 29.072,15.645 29.072,15.607 C29.072,15.569 29.116,15.551 29.153,15.536 L29.165,15.531 L33.145,13.847 Z M38.272,20.85 C38.072,21.226 37.682,21.616 37.022,22.277 L32.652,26.646 L27,25.469 L26.97,25.463 C26.92,25.455 26.867,25.446 26.867,25.401 C26.8236089,24.9296908 26.5863699,24.4975899 26.212,24.208 C26.189,24.185 26.195,24.149 26.202,24.116 C26.202,24.111 26.202,24.106 26.204,24.102 L27.267,17.576 L27.271,17.554 C27.277,17.504 27.286,17.446 27.331,17.446 C27.7911638,17.3887553 28.2090834,17.1491721 28.491,16.781 C28.5,16.771 28.506,16.76 28.518,16.754 C28.55,16.739 28.588,16.754 28.621,16.768 L38.271,20.85 L38.272,20.85 Z M31.647,27.651 L24.461,34.837 L25.691,27.277 L25.693,27.267 C25.694,27.257 25.696,27.247 25.699,27.238 C25.709,27.214 25.735,27.204 25.76,27.194 L25.772,27.189 C26.0413157,27.0740946 26.2795111,26.8969047 26.467,26.672 C26.491,26.644 26.52,26.617 26.557,26.612 C26.5666031,26.6104324 26.5763969,26.6104324 26.586,26.612 L31.646,27.652 L31.647,27.651 Z M22.94,36.358 L22.13,37.168 L13.175,24.226 C13.1717617,24.2212662 13.1684277,24.2165986 13.165,24.212 C13.151,24.193 13.136,24.174 13.139,24.152 C13.139,24.136 13.15,24.122 13.161,24.11 L13.171,24.097 C13.198,24.057 13.221,24.017 13.246,23.974 L13.266,23.939 L13.269,23.936 C13.283,23.912 13.296,23.889 13.32,23.876 C13.341,23.866 13.37,23.87 13.393,23.875 L23.314,25.921 C23.3417403,25.9253138 23.3679087,25.9366764 23.39,25.954 C23.403,25.967 23.406,25.981 23.409,25.997 C23.5492807,26.5277603 23.9295833,26.9624447 24.437,27.172 C24.465,27.186 24.453,27.217 24.44,27.25 C24.433514,27.2644631 24.428489,27.2795379 24.425,27.295 C24.3,28.055 23.228,34.593 22.94,36.358 Z M21.248,38.049 C20.651,38.64 20.299,38.953 19.901,39.079 C19.5085761,39.2030902 19.0874239,39.2030902 18.695,39.079 C18.229,38.931 17.826,38.529 17.021,37.723 L8.028,28.73 L10.377,25.087 C10.388,25.069 10.399,25.053 10.417,25.04 C10.442,25.022 10.478,25.03 10.508,25.04 C11.0471605,25.2026614 11.6260435,25.1733285 12.146,24.957 C12.173,24.9470459 12.2,24.94 12.221,24.959 C12.2315013,24.9685854 12.2408934,24.9793193 12.249,24.991 L21.248,38.05 L21.248,38.049 Z M7.161,27.863 L5.098,25.8 L9.172,24.062 C9.18241347,24.0574592 9.19363982,24.0550778 9.205,24.055 C9.239,24.055 9.259,24.089 9.277,24.12 C9.317942,24.1829884 9.36130782,24.2443677 9.407,24.304 L9.42,24.32 C9.432,24.337 9.424,24.354 9.412,24.37 L7.162,27.863 L7.161,27.863 Z M4.185,24.887 L1.575,22.277 C1.131,21.833 0.809,21.511 0.585,21.234 L8.521,22.88 C8.53096901,22.8818476 8.54097064,22.8835145 8.551,22.885 C8.6,22.893 8.654,22.902 8.654,22.948 C8.654,22.998 8.595,23.021 8.545,23.04 L8.522,23.05 L4.185,24.887 Z M0.129,19.892 C0.138044156,19.7238694 0.168283357,19.5575538 0.219,19.397 C0.367,18.931 0.769,18.529 1.575,17.723 L4.915,14.383 C6.45283313,16.6148797 7.99483583,18.8438836 9.541,21.07 C9.568,21.106 9.598,21.146 9.567,21.176 C9.421,21.337 9.275,21.513 9.172,21.704 C9.16082604,21.728551 9.14362646,21.7498785 9.122,21.766 C9.109,21.774 9.095,21.771 9.08,21.768 L9.078,21.768 L0.129,19.891 L0.129,19.892 Z M5.809,13.489 L10.298,8.998 C10.721,9.183 12.258,9.832 13.631,10.412 C14.671,10.852 15.619,11.252 15.917,11.382 C15.947,11.394 15.974,11.406 15.987,11.436 C15.995,11.454 15.991,11.477 15.987,11.496 C15.8425908,12.1545202 16.0391423,12.8415108 16.51,13.324 C16.54,13.354 16.51,13.397 16.484,13.434 L16.47,13.455 L11.91,20.518 C11.898,20.538 11.887,20.555 11.867,20.568 C11.843,20.583 11.809,20.576 11.781,20.569 C11.6036449,20.5225339 11.4213213,20.4976868 11.238,20.495 C11.074,20.495 10.896,20.525 10.716,20.558 L10.715,20.558 C10.695,20.561 10.677,20.565 10.661,20.553 C10.6433284,20.5385582 10.6281291,20.5213323 10.616,20.502 L5.808,13.489 L5.809,13.489 Z M11.207,8.091 L17.021,2.277 C17.826,1.472 18.229,1.069 18.695,0.922 C19.0874239,0.797909804 19.5085761,0.797909804 19.901,0.922 C20.367,1.069 20.77,1.472 21.575,2.277 L22.835,3.537 L18.7,9.941 C18.6897707,9.95964308 18.6758146,9.97598188 18.659,9.989 C18.634,10.006 18.599,9.999 18.569,9.989 C17.9071452,9.78814611 17.1888165,9.92657405 16.649,10.359 C16.622,10.387 16.582,10.371 16.548,10.356 C16.008,10.121 11.808,8.346 11.207,8.091 L11.207,8.091 Z M23.713,4.415 L27.531,8.233 L26.611,13.931 L26.611,13.946 C26.6101786,13.958986 26.607484,13.9717851 26.603,13.984 C26.593,14.004 26.573,14.008 26.553,14.014 C26.3562991,14.0735815 26.1710404,14.1658728 26.005,14.287 C25.9978617,14.2920871 25.9911707,14.2977745 25.985,14.304 C25.974,14.316 25.963,14.327 25.945,14.3290544 C25.9303499,14.3294526 25.9157501,14.3270759 25.902,14.322 L20.084,11.85 L20.073,11.845 C20.036,11.83 19.992,11.812 19.992,11.774 C19.9578032,11.4497842 19.8519124,11.1372356 19.682,10.859 C19.654,10.813 19.623,10.765 19.647,10.718 L23.713,4.415 Z M19.781,13.021 L25.235,15.331 C25.265,15.345 25.298,15.358 25.311,15.389 C25.3162043,15.4076436 25.3162043,15.4273564 25.311,15.446 C25.295,15.526 25.281,15.617 25.281,15.709 L25.281,15.862 C25.281,15.9 25.242,15.916 25.206,15.931 L25.195,15.935 C24.331,16.304 13.065,21.108 13.048,21.108 C13.031,21.108 13.013,21.108 12.996,21.091 C12.966,21.061 12.996,21.019 13.023,20.981 C13.0277734,20.9744087 13.0324407,20.9677412 13.037,20.961 L17.519,14.021 L17.527,14.009 C17.553,13.967 17.583,13.92 17.631,13.92 L17.676,13.927 C17.778,13.941 17.868,13.954 17.959,13.954 C18.639,13.954 19.269,13.623 19.649,13.057 C19.6580537,13.0418856 19.6695416,13.0283704 19.683,13.017 C19.71,12.997 19.75,13.007 19.781,13.021 L19.781,13.021 Z M13.535,22.206 L25.815,16.969 C25.815,16.969 25.833,16.969 25.85,16.986 C25.917,17.053 25.974,17.098 26.029,17.14 L26.056,17.157 C26.081,17.171 26.106,17.187 26.108,17.213 C26.108,17.223 26.108,17.229 26.106,17.238 L25.054,23.7 L25.05,23.726 C25.043,23.776 25.036,23.833 24.989,23.833 C24.419594,23.8714334 23.9058315,24.1883721 23.616,24.68 L23.611,24.688 C23.597,24.711 23.584,24.733 23.561,24.745 C23.54,24.755 23.513,24.751 23.491,24.746 L13.698,22.726 C13.688,22.724 13.546,22.207 13.535,22.206 L13.535,22.206 Z" id="Shape"></path>
        </g>
    </g>
</svg>