<svg width="125" height="125" xmlns="http://www.w3.org/2000/svg" xmlns:xlink="http://www.w3.org/1999/xlink"><defs><path id="a" d="M0 0h125v125H0z"/></defs><g fill="none" fill-rule="evenodd"><mask id="b" fill="#fff"><use xlink:href="#a"/></mask><use fill="#D8D8D8" xlink:href="#a"/><path fill="#333" mask="url(#b)" d="M0 0h125v125H0z"/><g fill="#FFDC4A" fill-rule="nonzero" mask="url(#b)"><path d="M37 46.814A15.211 15.211 0 0 0 31.342 45c-5.431 6.523-12.186 11.036-17.2 13.785-.09.696-.142 1.405-.142 2.127 0 1.437.175 2.811.449 4.088C20.417 62.012 29.92 56.19 37 46.814z"/><path d="M30 45.25l-.125-.25c-7.15.252-13.104 5.26-14.875 12 4.53-2.561 10.194-6.426 15-11.75zM39.209 48A54.583 54.583 0 0 1 36 51.974c2.356 3.61 5.617 7.946 9.793 12.026.127-.853.207-1.72.207-2.589 0-5.585-2.695-10.504-6.791-13.411zM34.751 53C27.905 59.766 20.151 64.165 15 66.618c.944 3.137 2.374 5.466 2.845 6.261A14.548 14.548 0 0 0 30.398 80c5.27 0 9.882-2.767 12.425-6.908.553-.9 2.23-3.855 3.177-7.41-4.802-4.25-8.55-8.843-11.249-12.682zm7.123 19.527c-2.454 3.995-6.744 6.38-11.476 6.38-4.756 0-9.2-2.52-11.596-6.578l-.076-.13c-.483-.812-1.546-2.601-2.379-5.015 5.04-2.476 11.95-6.535 18.25-12.503 3.08 4.234 6.49 8.048 10.152 11.358a29.282 29.282 0 0 1-2.875 6.488z"/><path d="M24 65c-.98 0-1.799.857-2 2 .201 1.143 1.02 2 2 2 .981 0 1.798-.857 2-2-.202-1.143-1.019-2-2-2zM36 65c-.981 0-1.799.857-2 2 .201 1.143 1.019 2 2 2 .98 0 1.798-.857 2-2-.202-1.143-1.02-2-2-2z"/><g><path d="M63.848 51.039c-2.513-.387-5.315 2.216-5.796 3.79-.565 1.847 3.642 3.983 4.821 4.04 1.18.058 2.72.462 2.975-.52.257-.981.719-2.136 1.078-3.52.358-1.385-.565-3.404-3.078-3.79zM64.06 65c1.087 0 .932-1.781.932-3.007 0-1.224-.571-1.82-1.344-1.948-2.38-.39-4.553-2.06-5.948-2.045-1.397.016-2.329 2.323-1.19 3.993C57.648 63.663 62.975 65 64.06 65zM63.546 67.698c-.951 0-2.748-.212-3.804-.583-1.057-.372-2.906-1.538-3.487-.954-.53.53-.212 2.12.74 3.817.95 1.697 4.701 3.022 6.34 3.022 1.638 0 2.853-1.325 2.641-2.969-.21-1.644-1.48-2.333-2.43-2.333zM104.127 58.869c1.18-.057 5.386-2.193 4.821-4.04-.481-1.574-3.283-4.177-5.796-3.79-2.513.385-3.437 2.405-3.077 3.79.36 1.385.82 2.539 1.076 3.52.257.982 1.797.578 2.976.52zM109.301 58c-1.397-.015-3.57 1.655-5.948 2.045-.774.127-1.345.724-1.345 1.948 0 1.226-.155 3.007.931 3.007s6.414-1.336 7.551-3.007c1.138-1.67.208-3.977-1.189-3.993zM107.258 67.115c-1.057.371-2.853.583-3.804.583-.952 0-2.22.69-2.43 2.333-.212 1.644 1.002 2.969 2.64 2.969 1.64 0 5.39-1.325 6.342-3.022.95-1.697 1.268-3.287.74-3.817-.581-.584-2.43.582-3.488.954zM77 46c-4.964 2.055-8.712 6.094-10 11 4.974-2.042 8.732-6.09 10-11z"/><path d="M82 45c-1.311.09-2.58.35-3.787.769-1.038 6.88-5.357 12.547-11.116 14.956A19.84 19.84 0 0 0 67 62.657c0 .803.035 1.583.096 2.343C75.104 62.292 81.113 54.475 82 45zM100 57c-1.288-4.905-5.034-8.945-10-11 1.27 4.91 5.026 8.958 10 11z"/><path d="M88.787 45.768A14.56 14.56 0 0 0 85 45c.888 9.477 6.901 17.296 14.913 20 .056-.76.087-1.541.087-2.345 0-.653-.034-1.297-.097-1.932-5.758-2.408-10.078-8.074-11.116-14.955z"/><path d="M83.487 48C81.298 56.219 75.007 62.736 67 65.12 68.563 74.455 75.49 80 83.487 80c8.668 0 15.082-5.541 16.513-14.872C91.98 62.752 85.675 56.229 83.487 48zm0 30.832c-7.477 0-13.462-5.146-15.165-12.912 6.824-2.357 12.371-7.653 15.164-14.356 2.799 6.72 8.361 12.022 15.207 14.37-1.602 7.985-7.351 12.898-15.206 12.898z"/><path d="M77.652 66.141c-.964-.34-2.047-.043-2.619.663-.175.847.35 1.714 1.313 2.055.965.341 2.05.043 2.62-.663.175-.847-.349-1.713-1.314-2.055zM88.033 68.196c.571.706 1.656 1.004 2.62.663.964-.341 1.489-1.208 1.314-2.055-.571-.706-1.656-1.004-2.62-.663-.964.342-1.489 1.207-1.314 2.055z"/></g></g></g></svg>